<svg width="72" height="52" viewBox="0 0 72 52" fill="none" xmlns="http://www.w3.org/2000/svg">
<path fill-rule="evenodd" clip-rule="evenodd" d="M52.1525 36.9226L54.8974 39.4563L60.3871 33.9666L62.2874 35.6557L55.9531 41.99L55.1085 43.0457L54.0528 42.2012L50.4633 38.8229L52.1525 36.9226ZM11.824 33.3331L9.92375 34.8111L12.0352 37.7672H8.44575V36.5003H6.12317V40.0897H12.0352L9.92375 43.0457L11.824 44.5237L15.2023 40.0897H19.4252V37.7672H15.2023L11.824 33.3331ZM24.7038 44.946H34.4164V42.6235H24.7038V44.946ZM24.7038 40.0897H38.8504V37.7672H24.7038V40.0897ZM24.7038 35.2334H38.8504V32.9108H24.7038V35.2334ZM2.32258 30.3771H65.4545V44.946C65.4545 47.0575 63.7654 48.7466 61.8651 48.7466H46.0293V46.2129H43.7067V48.7466H6.12317C4.01173 48.7466 2.32258 47.0575 2.32258 44.946V30.3771ZM65.4545 28.0545H46.0293V26.7877H43.7067V28.0545H2.32258V25.5208C2.32258 23.6205 4.01173 21.9314 6.12317 21.9314H43.7067V24.4651H46.0293V21.9314H61.8651C63.7654 21.9314 65.4545 23.6205 65.4545 25.5208V28.0545ZM43.7067 43.8903H46.0293V41.3566H43.7067V43.8903ZM43.7067 39.034H46.0293V36.5003H43.7067V39.034ZM43.7067 34.1777H46.0293V31.644H43.7067V34.1777ZM61.8651 19.6088H52.1525L52.3636 19.1865L50.041 18.5531L49.6188 19.6088L11.6129 7.15132L12.4575 4.61759C12.8798 3.56187 14.1466 2.92844 15.4135 3.13959L50.8856 14.5413L50.2522 16.2305L52.5748 17.0751L53.2082 15.3859L67.3548 19.8199C68.6217 20.2422 69.2551 21.5091 69.044 22.7759L67.7771 26.3654V34.1777L71.1554 23.4094C72 21.0868 70.522 18.3419 68.1994 17.7085L16.0469 1.02815C13.7243 0.183574 10.9795 1.45044 10.1349 3.98416L4.64516 19.6088C2.11144 20.2422 0 22.7759 0 25.5208V44.946C0 48.3243 2.74487 51.0692 6.12317 51.0692H61.8651C65.2434 51.0692 67.7771 48.3243 67.7771 44.946V25.5208C67.7771 22.3537 65.2434 19.6088 61.8651 19.6088ZM42.0176 19.6088H7.17888L10.7683 9.26275L42.0176 19.6088Z" fill="#2B4B7A"/>
</svg>
