<svg width="24" height="18" viewBox="0 0 24 18" fill="none" xmlns="http://www.w3.org/2000/svg">
<path d="M23.2968 8.11522C21.4893 6.90969 19.3766 6.27452 17.187 6.27831L14.3417 6.28326L7.8563 0.19471C7.72301 0.0696095 7.5451 -0.000155821 7.35994 0.000122902L3.97382 0.00605369C3.70024 0.00652246 3.45146 0.159503 3.33371 0.399595C3.21602 0.639654 3.25025 0.924363 3.42187 1.13196L7.68848 6.29488L5.38148 6.2989L2.83924 3.84168C2.57076 3.58222 2.14098 3.57185 1.86052 3.81817L0.234309 5.2466C-0.0122925 5.46321 -0.0715586 5.81731 0.0914929 6.09951L2.71833 10.6461C2.81538 10.8141 2.97817 10.9329 3.16529 10.979C3.22206 10.993 3.2811 11.0002 3.34116 11.0001L22.3956 10.9671C23.114 10.9658 23.7146 10.5335 23.9256 9.86569C24.1367 9.19784 23.8898 8.51079 23.2968 8.11522ZM22.3906 9.58197L3.75403 9.61434L1.611 5.90503L2.31551 5.28616L4.58823 7.48281C4.72216 7.61225 4.90336 7.68477 5.09191 7.68443L9.1737 7.67733C9.44732 7.67688 9.69606 7.52389 9.8138 7.28379C9.93149 7.04373 9.89726 6.75907 9.72565 6.55143L5.459 1.3885L7.07651 1.38573L13.5619 7.47424C13.6952 7.5994 13.8733 7.66912 14.0582 7.66882L17.192 7.66341C19.0919 7.66015 20.9249 8.21121 22.4932 9.2572C22.567 9.30639 22.591 9.37348 22.5648 9.45654C22.5387 9.53955 22.48 9.58178 22.3906 9.58197Z" fill="#2B4060"/>
<path d="M23.2789 15.6781H0.721269C0.322976 15.6781 6.10316e-05 16.001 6.10316e-05 16.3993C6.10316e-05 16.7976 0.322976 17.1205 0.721269 17.1205H23.2789C23.6771 17.1205 24.0001 16.7976 24.0001 16.3993C24.0001 16.001 23.6772 15.6781 23.2789 15.6781Z" fill="#2B4060"/>
</svg>
