<svg width="16" height="18" viewBox="0 0 16 18" fill="none" xmlns="http://www.w3.org/2000/svg">
<path d="M15.1436 4.53844H12.1078V4.1813C12.1078 1.91344 10.2686 0.0741577 8.0007 0.0741577C5.73284 0.0741577 3.89356 1.91344 3.89356 4.1813V4.53844H0.85784C0.462751 4.53844 0.143555 4.85764 0.143555 5.25273V17.217C0.143555 17.6121 0.462751 17.9313 0.85784 17.9313H15.1436C15.5386 17.9313 15.8578 17.6121 15.8578 17.217V5.25273C15.8578 4.85764 15.5386 4.53844 15.1436 4.53844ZM5.5007 4.1813C5.5007 2.7996 6.619 1.6813 8.0007 1.6813C9.38239 1.6813 10.5007 2.7996 10.5007 4.1813V4.53844H5.5007V4.1813ZM14.2507 16.3242H1.7507V6.14559H3.89356V8.10987C3.89356 8.20809 3.97391 8.28844 4.07213 8.28844H5.32213C5.42034 8.28844 5.5007 8.20809 5.5007 8.10987V6.14559H10.5007V8.10987C10.5007 8.20809 10.5811 8.28844 10.6793 8.28844H11.9293C12.0275 8.28844 12.1078 8.20809 12.1078 8.10987V6.14559H14.2507V16.3242Z" fill="white"/>
</svg>
