<svg width="16" height="9" viewBox="0 0 16 9" fill="none" xmlns="http://www.w3.org/2000/svg">
<path d="M15.2398 2.24064C13.8578 1.78381 12.4047 1.8126 11.0377 2.3239L10.0942 2.6224L3.97863 0.0262175C3.86912 -0.0337963 3.37881 0.0907998 3.62773 0L1.97122 0.604252C1.80041 0.668133 1.67709 0.837157 1.6539 1.03909C1.63074 1.24099 1.71185 1.44008 1.86261 1.55118L5.75238 4.74493L3.62773 5.67519L1.6539 4.52374C1.43175 4.39742 1.20545 4.31352 0.881886 4.52374L0.0618413 5.23662C-0.0467702 5.4514 -0.00950956 5.72266 0.15155 5.89L2.91546 8.86047C3.01133 8.96007 3.13796 9.0087 3.26451 8.99872C3.30291 8.99569 3.34131 8.98726 3.37881 8.97325L15.2751 4.52374C15.7236 4.35596 16.0081 3.90209 15.9998 3.36749C15.9916 2.83282 15.6932 2.39055 15.2398 2.24064Z" fill="#8EBDFF"/>
</svg>
