<svg width="20" height="20" viewBox="0 0 20 20" fill="none" xmlns="http://www.w3.org/2000/svg">
<path d="M15.0781 8.9845C15.5096 8.9845 15.8594 8.63472 15.8594 8.20325C15.8594 7.77177 15.5096 7.422 15.0781 7.422C14.6467 7.422 14.2969 7.77177 14.2969 8.20325C14.2969 8.63472 14.6467 8.9845 15.0781 8.9845Z" fill="#2B4060"/>
<path d="M16.875 1.56262H15.8594V0.781372C15.8594 0.349888 15.5096 0.00012207 15.0781 0.00012207C14.6466 0.00012207 14.2969 0.349888 14.2969 0.781372V1.56262H10.7422V0.781372C10.7422 0.349888 10.3924 0.00012207 9.96094 0.00012207C9.52945 0.00012207 9.17969 0.349888 9.17969 0.781372V1.56262H5.66406V0.781372C5.66406 0.349888 5.3143 0.00012207 4.88281 0.00012207C4.45133 0.00012207 4.10156 0.349888 4.10156 0.781372V1.56262H3.125C1.40188 1.56262 0 2.9645 0 4.68762V16.8751C0 18.5982 1.40188 20.0001 3.125 20.0001H9.10156C9.53305 20.0001 9.88281 19.6504 9.88281 19.2189C9.88281 18.7874 9.53305 18.4376 9.10156 18.4376H3.125C2.26344 18.4376 1.5625 17.7367 1.5625 16.8751V4.68762C1.5625 3.82606 2.26344 3.12512 3.125 3.12512H4.10156V3.90637C4.10156 4.33786 4.45133 4.68762 4.88281 4.68762C5.3143 4.68762 5.66406 4.33786 5.66406 3.90637V3.12512H9.17969V3.90637C9.17969 4.33786 9.52945 4.68762 9.96094 4.68762C10.3924 4.68762 10.7422 4.33786 10.7422 3.90637V3.12512H14.2969V3.90637C14.2969 4.33786 14.6466 4.68762 15.0781 4.68762C15.5096 4.68762 15.8594 4.33786 15.8594 3.90637V3.12512H16.875C17.7366 3.12512 18.4375 3.82606 18.4375 4.68762V9.14075C18.4375 9.57223 18.7873 9.922 19.2188 9.922C19.6502 9.922 20 9.57223 20 9.14075V4.68762C20 2.9645 18.5981 1.56262 16.875 1.56262Z" fill="#2B4060"/>
<path d="M15.2734 10.547C12.6672 10.547 10.5469 12.6673 10.5469 15.2736C10.5469 17.8798 12.6672 20.0001 15.2734 20.0001C17.8797 20.0001 20 17.8798 20 15.2736C20 12.6673 17.8797 10.547 15.2734 10.547ZM15.2734 18.4376C13.5288 18.4376 12.1094 17.0182 12.1094 15.2736C12.1094 13.5289 13.5288 12.1095 15.2734 12.1095C17.0181 12.1095 18.4375 13.5289 18.4375 15.2736C18.4375 17.0182 17.0181 18.4376 15.2734 18.4376Z" fill="#2B4060"/>
<path d="M16.4062 14.4923H16.0547V13.672C16.0547 13.2405 15.7049 12.8907 15.2734 12.8907C14.842 12.8907 14.4922 13.2405 14.4922 13.672V15.2736C14.4922 15.705 14.842 16.0548 15.2734 16.0548H16.4062C16.8377 16.0548 17.1875 15.705 17.1875 15.2736C17.1875 14.8421 16.8377 14.4923 16.4062 14.4923Z" fill="#2B4060"/>
<path d="M11.6797 8.9845C12.1112 8.9845 12.4609 8.63472 12.4609 8.20325C12.4609 7.77177 12.1112 7.422 11.6797 7.422C11.2482 7.422 10.8984 7.77177 10.8984 8.20325C10.8984 8.63472 11.2482 8.9845 11.6797 8.9845Z" fill="#2B4060"/>
<path d="M8.28125 12.3829C8.71272 12.3829 9.0625 12.0332 9.0625 11.6017C9.0625 11.1702 8.71272 10.8204 8.28125 10.8204C7.84978 10.8204 7.5 11.1702 7.5 11.6017C7.5 12.0332 7.84978 12.3829 8.28125 12.3829Z" fill="#2B4060"/>
<path d="M4.88281 8.9845C5.31428 8.9845 5.66406 8.63472 5.66406 8.20325C5.66406 7.77177 5.31428 7.422 4.88281 7.422C4.45134 7.422 4.10156 7.77177 4.10156 8.20325C4.10156 8.63472 4.45134 8.9845 4.88281 8.9845Z" fill="#2B4060"/>
<path d="M4.88281 12.3829C5.31428 12.3829 5.66406 12.0332 5.66406 11.6017C5.66406 11.1702 5.31428 10.8204 4.88281 10.8204C4.45134 10.8204 4.10156 11.1702 4.10156 11.6017C4.10156 12.0332 4.45134 12.3829 4.88281 12.3829Z" fill="#2B4060"/>
<path d="M4.88281 15.7814C5.31428 15.7814 5.66406 15.4316 5.66406 15.0001C5.66406 14.5686 5.31428 14.2189 4.88281 14.2189C4.45134 14.2189 4.10156 14.5686 4.10156 15.0001C4.10156 15.4316 4.45134 15.7814 4.88281 15.7814Z" fill="#2B4060"/>
<path d="M8.28125 15.7814C8.71272 15.7814 9.0625 15.4316 9.0625 15.0001C9.0625 14.5686 8.71272 14.2189 8.28125 14.2189C7.84978 14.2189 7.5 14.5686 7.5 15.0001C7.5 15.4316 7.84978 15.7814 8.28125 15.7814Z" fill="#2B4060"/>
<path d="M8.28125 8.9845C8.71272 8.9845 9.0625 8.63472 9.0625 8.20325C9.0625 7.77177 8.71272 7.422 8.28125 7.422C7.84978 7.422 7.5 7.77177 7.5 8.20325C7.5 8.63472 7.84978 8.9845 8.28125 8.9845Z" fill="#2B4060"/>
</svg>
