<svg width="24" height="17" viewBox="0 0 24 17" fill="none" xmlns="http://www.w3.org/2000/svg">
<path d="M22.8475 2.97343C20.7523 2.36337 18.5494 2.40182 16.477 3.08463L13.7839 3.97195L5.70552 0.0708576C5.53951 -0.00928695 5.34882 -0.0218543 5.17356 0.0358458L1.9686 1.09185C1.70965 1.17715 1.5227 1.40287 1.48754 1.67255C1.45243 1.94217 1.57539 2.20804 1.80395 2.3564L7.48664 6.04677L5.30307 6.76622L2.11395 5.16852C1.77717 4.99983 1.36684 5.12306 1.17957 5.44925L0.0937531 7.34078C-0.0709049 7.62761 -0.0144168 7.98986 0.229754 8.21334L4.16348 11.8138C4.30882 11.9468 4.50079 12.0117 4.69265 11.9984C4.75085 11.9944 4.80908 11.9831 4.86593 11.9644L22.901 6.02237C23.581 5.79832 24.0123 5.1922 23.9997 4.47828C23.9872 3.76426 23.535 3.17363 22.8475 2.97343ZM22.4557 4.67886L4.81622 10.4906L1.60696 7.55319L2.07734 6.73369L4.92835 8.16195C5.09635 8.24611 5.29103 8.26033 5.46948 8.20152L9.3329 6.92862C9.59189 6.84331 9.7788 6.61759 9.81396 6.34792C9.84907 6.07829 9.72611 5.81248 9.49755 5.66406L3.81481 1.9737L5.3458 1.46932L13.4242 5.37036C13.5902 5.45055 13.7811 5.46301 13.9561 5.40538L16.9222 4.42814C18.7205 3.83571 20.6317 3.80231 22.4496 4.33166C22.5352 4.35652 22.5793 4.41423 22.5809 4.50301C22.5825 4.59174 22.5403 4.65095 22.4557 4.67886Z" fill="#2B4060"/>
<path d="M23.2789 14.6782H0.721269C0.322976 14.6782 6.10304e-05 15.0011 6.10304e-05 15.3994C6.10304e-05 15.7977 0.322976 16.1206 0.721269 16.1206H23.2789C23.6771 16.1206 24.0001 15.7977 24.0001 15.3994C24.0001 15.0011 23.6772 14.6782 23.2789 14.6782Z" fill="#2B4060"/>
</svg>
