<svg width="20" height="12" viewBox="0 0 20 12" fill="none" xmlns="http://www.w3.org/2000/svg">
<path d="M5.16974 5.01531C4.62677 5.01531 4.18505 5.45707 4.18505 6C4.18505 6.54297 4.62677 6.98469 5.16974 6.98469C5.71271 6.98469 6.15443 6.54301 6.15443 6C6.15446 5.45703 5.71271 5.01531 5.16974 5.01531Z" fill="#2B4060"/>
<path d="M17.2921 3.29206H9.57449C8.63727 1.76257 6.98895 0.830307 5.16973 0.830307C2.31914 0.830307 0 3.14941 0 5.99999C0 8.85057 2.31914 11.1697 5.16969 11.1697C6.92043 11.1697 8.51266 10.3065 9.46543 8.87843L11.0779 10.4909L12.555 9.01385L14.0321 10.4909L15.815 8.70792H17.2921L20 5.99999L17.2921 3.29206ZM16.6803 7.23089H15.2032L14.032 8.40206L12.555 6.92499L11.0779 8.40206L9.90672 7.23089H8.68215L8.47848 7.64073C7.84949 8.90643 6.58164 9.69264 5.16969 9.69264C3.13355 9.69264 1.47703 8.03612 1.47703 5.99999C1.47703 3.96386 3.13355 2.30734 5.16969 2.30734C6.58164 2.30734 7.84953 3.09363 8.47848 4.35925L8.68215 4.76909H16.6802L17.9111 5.99999L16.6803 7.23089Z" fill="#2B4060"/>
</svg>
