<svg width="80" height="80" viewBox="0 0 80 80" fill="none" xmlns="http://www.w3.org/2000/svg">
<g opacity="0.15">
<path fill-rule="evenodd" clip-rule="evenodd" d="M2.36202 0C1.05755 0 0 1.04937 0 2.34375V77.6562C0 78.9506 1.05755 80 2.36202 80H57.638C58.9424 80 60 78.9506 60 77.6562V2.34375C60 1.04937 58.9426 0 57.638 0H2.36202ZM17.6073 53.0009C17.1643 53.4405 16.5636 53.6873 15.9372 53.6873C15.3108 53.6873 14.7099 53.4405 14.2671 53.0008L10.8858 49.6456C9.96331 48.7303 9.96331 47.2464 10.8858 46.3311C11.8082 45.4158 13.3038 45.4158 14.2261 46.3311L15.9372 48.0289L21.4416 42.567C22.3639 41.6519 23.8595 41.6517 24.782 42.567C25.7044 43.4825 25.7044 44.9666 24.782 45.8819L17.6073 53.0009ZM17.6073 38.7816C17.1643 39.2211 16.5636 39.468 15.9372 39.468C15.3108 39.468 14.7099 39.2211 14.2671 38.7814L10.8858 35.4263C9.96331 34.5109 9.96331 33.027 10.8858 32.1117C11.8082 31.1964 13.3038 31.1966 14.2261 32.1117L15.9372 33.8095L21.4416 28.3477C22.3639 27.4323 23.8595 27.4323 24.782 28.3477C25.7044 29.263 25.7044 30.747 24.782 31.6623L17.6073 38.7816ZM17.6073 24.562C17.1643 25.0016 16.5636 25.2484 15.9372 25.2484C15.3108 25.2484 14.7099 25.0016 14.2671 24.5619L10.8858 21.2067C9.96331 20.2914 9.96331 18.8075 10.8858 17.8922C11.8082 16.9769 13.3038 16.977 14.2261 17.8922L15.9372 19.59L21.4416 14.1281C22.3639 13.2128 23.8595 13.2128 24.782 14.1281C25.7044 15.0436 25.7044 16.5275 24.782 17.4428L17.6073 24.562ZM32.2938 50.8887C30.9894 50.8887 29.9318 49.8394 29.9318 48.545C29.9318 47.2506 30.9894 46.2012 32.2938 46.2012H47.2941C48.5985 46.2012 49.6561 47.2506 49.6561 48.545C49.6561 49.8394 48.5987 50.8887 47.2941 50.8887H32.2938ZM32.2938 36.6694C30.9894 36.6694 29.9318 35.62 29.9318 34.3256C29.9318 33.0312 30.9894 31.9819 32.2938 31.9819H47.2941C48.5985 31.9819 49.6561 33.0312 49.6561 34.3256C49.6561 35.62 48.5987 36.6694 47.2941 36.6694H32.2938ZM32.2938 22.4498C30.9894 22.4498 29.9318 21.4005 29.9318 20.1061C29.9318 18.8117 30.9894 17.7623 32.2938 17.7623H47.2941C48.5985 17.7623 49.6561 18.8117 49.6561 20.1061C49.6561 21.4005 48.5987 22.4498 47.2941 22.4498H32.2938Z" fill="#294A7A"/>
</g>
<mask id="mask0_0_4079" style="mask-type:alpha" maskUnits="userSpaceOnUse" x="44" y="39" width="36" height="36">
<rect x="44" y="39" width="36" height="36" fill="white"/>
</mask>
<g mask="url(#mask0_0_4079)">
<path fill-rule="evenodd" clip-rule="evenodd" d="M46.25 57C46.25 65.6977 53.3023 72.75 62 72.75C70.6977 72.75 77.75 65.6977 77.75 57C77.75 48.3023 70.6977 41.25 62 41.25C53.3023 41.25 46.25 48.3023 46.25 57ZM61.3988 62.1223C61.2953 62.2667 61.1589 62.3844 61.0009 62.4656C60.8428 62.5468 60.6677 62.5891 60.49 62.5891C60.3124 62.5891 60.1372 62.5468 59.9792 62.4656C59.8211 62.3844 59.6847 62.2667 59.5813 62.1223L55.1973 56.0473C55.0637 55.8609 55.1973 55.6008 55.4258 55.6008H57.0746C57.4332 55.6008 57.7742 55.773 57.9852 56.0684L60.4883 59.5418L66.0148 51.8777C66.2258 51.5859 66.5633 51.4102 66.9254 51.4102H68.5742C68.8027 51.4102 68.9363 51.6703 68.8027 51.8566L61.3988 62.1223Z" fill="#5198FF"/>
</g>
</svg>
