<svg width="12" height="17" viewBox="0 0 12 17" fill="none" xmlns="http://www.w3.org/2000/svg">
<path d="M0 5.91668C0 8.19131 1.60968 11.5007 4.82904 15.845L4.82903 15.845C5.24007 16.3996 6.02292 16.5161 6.57758 16.105C6.67661 16.0316 6.76424 15.944 6.83763 15.845C10.057 11.5007 11.6667 8.19131 11.6667 5.91668C11.6667 2.69168 9.05833 0.0833435 5.83333 0.0833435C2.60833 0.0833435 0 2.69168 0 5.91668ZM3.75 5.91668C3.75 4.76668 4.68333 3.83334 5.83333 3.83334C6.98333 3.83334 7.91667 4.76668 7.91667 5.91668C7.91667 7.06668 6.98333 8.00001 5.83333 8.00001C4.68333 8.00001 3.75 7.06668 3.75 5.91668Z" fill="#8EBDFF"/>
</svg>
