<svg width="40" height="40" viewBox="0 0 40 40" fill="none" xmlns="http://www.w3.org/2000/svg">
<g opacity="0.1">
<path d="M34.0407 10.5061L31.6572 13.8763C32.0405 14.5887 32.3422 15.3285 32.5885 16.0957L32.0405 16.2601C31.2733 16.5067 30.8352 17.2739 30.9722 18.0685V18.0959C31.1092 18.8905 31.7942 19.4659 32.5885 19.4385L33.1642 19.4111C33.1916 20.1233 33.1642 20.8633 33.0817 21.6031C32.9173 22.8087 32.6162 23.9869 32.1504 25.0555L31.6298 24.8366C30.89 24.5349 30.068 24.8089 29.657 25.4939C29.6296 25.5216 29.6296 25.5487 29.6025 25.5761C29.1915 26.2611 29.383 27.1379 30.0135 27.6037L30.479 27.9599C29.3008 29.4946 27.7938 30.7547 26.0676 31.6313L25.7936 31.1109C25.4374 30.3983 24.588 30.0971 23.8208 30.3711H23.7934C23.0262 30.6451 22.5878 31.4126 22.7522 32.2069L22.8892 32.7826C21.4367 33.1111 19.93 33.1936 18.3956 33.0015C17.9846 32.947 17.5736 32.8645 17.1626 32.7826L17.2722 32.262C17.4366 31.4945 17.0256 30.7276 16.3132 30.4536C16.2858 30.4536 16.2584 30.4259 16.231 30.4259C15.4912 30.1243 14.6144 30.4259 14.2308 31.1386L13.9568 31.6315C12.2306 30.7276 10.751 29.4672 9.60019 27.9602L10.066 27.604C10.6962 27.1105 10.8606 26.234 10.477 25.5764C10.4496 25.549 10.4496 25.5219 10.4222 25.4942C10.0386 24.8092 9.18919 24.5352 8.44939 24.8369L7.92879 25.0558C7.18899 23.3025 6.83279 21.3845 6.91499 19.4117L7.54519 19.4391C8.33979 19.4665 9.05219 18.9185 9.16179 18.1239V18.0965C9.29879 17.3293 8.80559 16.5621 8.06579 16.3429L7.46299 16.1785C8.03839 14.2605 9.05219 12.5617 10.34 11.1369L10.751 11.5205C11.3264 12.0685 12.2306 12.0685 12.8334 11.5753C12.8608 11.5479 12.8882 11.5205 12.9156 11.5205C13.5184 10.9999 13.6554 10.1231 13.217 9.46548L12.9156 8.97228C14.5048 7.93108 16.3406 7.24608 18.286 6.99948L18.3682 7.60228C18.4778 8.39688 19.1354 8.97228 19.93 8.97228C19.9848 8.97228 20.067 8.97228 20.1218 8.97228C20.9164 8.97228 21.5737 8.39688 21.6836 7.60228L21.7658 6.97208C22.5604 7.08168 23.355 7.27348 24.0948 7.49268L26.9718 4.64308C26.9995 4.61568 27.0266 4.58828 27.054 4.56088L27.0817 4.53348C25.547 3.82108 23.8759 3.35528 22.122 3.13608C12.806 1.95788 4.312 8.56128 3.13407 17.8773C1.95614 27.1933 8.55927 35.6873 17.8753 36.8655C27.1913 38.0437 35.6853 31.4403 36.8635 22.1243C37.4115 17.8499 36.3155 13.7673 34.0687 10.4793C34.0681 10.4513 34.0681 10.4787 34.0407 10.5061Z" fill="#2B4060"/>
<path d="M19.3269 16.7533C17.5459 17.1369 16.3677 18.9453 16.8609 20.8359C17.2171 22.2335 18.5049 23.2471 19.9571 23.2742C19.9845 23.2742 20.0119 23.2742 20.0393 23.2742C21.9022 23.2742 23.2999 21.7949 23.3273 20.0413L29.3553 11.4922L31.3829 8.6152C31.6292 8.1494 31.5744 7.65619 31.3552 7.29999C31.1908 7.05339 30.9719 6.86159 30.6979 6.75199C30.5332 6.69719 30.3691 6.6424 30.2044 6.6424C29.903 6.6424 29.6019 6.752 29.3279 6.9986L26.9712 9.3002L19.3269 16.7533Z" fill="#2B4060"/>
</g>
</svg>
