<svg width="40" height="40" viewBox="0 0 40 40" fill="none" xmlns="http://www.w3.org/2000/svg">
<g opacity="0.1">
<path d="M31.2153 36.1529H8.7851C8.27234 36.1535 7.76481 36.0499 7.29338 35.8482C6.82196 35.6465 6.39649 35.351 6.04286 34.9797C5.68923 34.6084 5.41484 34.169 5.23637 33.6883C5.0579 33.2076 4.97909 32.6956 5.00473 32.1835L6.02553 12.2069C6.06777 11.233 6.48463 10.313 7.18906 9.63911C7.89349 8.9652 8.83103 8.58948 9.8059 8.59039H30.1947C31.1696 8.58948 32.1071 8.9652 32.8115 9.63911C33.516 10.313 33.9328 11.233 33.9751 12.2069L34.9957 32.1835C35.0213 32.6956 34.9425 33.2076 34.764 33.6883C34.5855 34.169 34.3111 34.6084 33.9575 34.9797C33.6039 35.351 33.1784 35.6465 32.707 35.8482C32.2356 36.0499 31.728 36.1535 31.2153 36.1529ZM9.8059 11.1232C9.47169 11.1232 9.15117 11.256 8.91486 11.4923C8.67854 11.7286 8.54577 12.0492 8.54577 12.3834L7.52497 32.3095C7.51643 32.4802 7.5427 32.6509 7.60219 32.8111C7.66168 32.9713 7.75314 33.1178 7.87102 33.2416C7.98889 33.3653 8.13072 33.4638 8.28786 33.5311C8.445 33.5983 8.61418 33.6329 8.7851 33.6326H31.2153C31.3862 33.6329 31.5554 33.5983 31.7125 33.5311C31.8697 33.4638 32.0115 33.3653 32.1294 33.2416C32.2472 33.1178 32.3387 32.9713 32.3982 32.8111C32.4577 32.6509 32.4754 32.1835 32.4754 32.3095L31.4548 12.333C31.4548 11.9988 31.322 11.6782 31.0857 11.4419C30.8494 11.2056 30.5289 11.0728 30.1947 11.0728L9.8059 11.1232Z" fill="#2B4060"/>
<path d="M27.5609 9.86312H25.0407V7.65791C25.0407 6.32108 24.5096 5.03901 23.5644 4.09374C22.6191 3.14846 21.337 2.61741 20.0002 2.61741C18.6634 2.61741 17.3813 3.14846 16.436 4.09374C15.4907 5.03901 14.9597 6.32108 14.9597 7.65791V9.86312H12.4395V7.65791C12.4395 5.65267 13.236 3.72957 14.6539 2.31166C16.0719 0.893743 17.995 0.097168 20.0002 0.097168C22.0054 0.097168 23.9285 0.893743 25.3464 2.31166C26.7644 3.72957 27.5609 5.65267 27.5609 7.65791V9.86312Z" fill="#2B4060"/>
<path d="M31.2153 36.1448H8.78512C8.44328 36.1452 8.10492 36.0761 7.79064 35.9416C7.47636 35.8071 7.19271 35.6102 6.95696 35.3626C6.72121 35.1151 6.53828 34.8222 6.4193 34.5017C6.30032 34.1812 6.24778 33.8399 6.26487 33.4985L7.28528 12.2699C7.3145 11.6214 7.59287 11.0091 8.06238 10.5607C8.53188 10.1123 9.15631 9.86244 9.80553 9.8631H30.1943C30.8435 9.86244 31.468 10.1123 31.9375 10.5607C32.407 11.0091 32.6854 11.6214 32.7146 12.2699L33.7356 33.4985C33.7526 33.8399 33.7001 34.1812 33.5811 34.5017C33.4621 34.8222 33.2792 35.1151 33.0435 35.3626C32.8077 35.6102 32.5241 35.8071 32.2098 35.9416C31.8955 36.0761 31.5571 36.1452 31.2153 36.1448Z" fill="#2B4060"/>
</g>
</svg>
