<svg width="28" height="44" viewBox="0 0 28 44" fill="none" xmlns="http://www.w3.org/2000/svg">
<path d="M14 0C6.2832 0 0 6.16834 0 13.75V30.25C0 37.8317 6.2832 44 14 44C21.7221 44 28 37.8317 28 30.25V13.75C28 6.16834 21.7221 0 14 0ZM25.2 30.25C25.2 36.3 20.1627 41.25 14 41.25C7.84 41.25 2.8 36.3 2.8 30.25V13.75C2.8 7.7 7.84 2.75 14 2.75C20.1627 2.75 25.2 7.7 25.2 13.75V30.25Z" fill="#2A60AE"/>
<path d="M14.0027 14C12.4624 14 11.2027 15.2372 11.2027 16.75V19.5C11.2027 21.0128 12.4624 22.25 14.0027 22.25C15.543 22.25 16.8027 21.0128 16.8027 19.5V16.75C16.8027 15.2372 15.5429 14 14.0027 14Z" fill="#2A60AE"/>
</svg>
