<svg width="40" height="40" viewBox="0 0 40 40" fill="none" xmlns="http://www.w3.org/2000/svg">
<g opacity="0.15">
<path d="M21.8342 7.62874C22.5166 8.38023 22.9989 9.30841 23.2679 10.3874C23.5231 11.4117 23.5802 12.551 23.4378 13.7739C23.385 14.2262 23.3069 14.7387 23.193 15.2806C24.0746 16.1191 25.2295 16.6516 26.731 16.6515C30.8968 16.6512 32.3957 12.5536 32.788 9.18775C33.2715 5.04121 31.2757 1.92035 26.7311 1.92035C23.1648 1.92035 21.1683 3.84283 20.7078 6.67462C21.1244 6.94564 21.5022 7.26313 21.8342 7.62874Z" fill="#2B4B7A"/>
<path d="M37.998 26.7719C37.9526 25.4424 37.7968 24.1067 37.5646 22.7979C37.2838 21.2123 36.9259 18.8878 35.5416 17.8544C34.7411 17.2571 33.7043 17.0611 32.788 16.7009C32.342 16.5257 31.9423 16.3516 31.5673 16.1534C30.3015 17.5415 28.6509 18.2676 26.7289 18.2677C25.2332 18.2677 23.903 17.8259 22.7894 16.9764C22.5331 17.7693 22.1899 18.5678 21.7312 19.2973C22.134 19.54 22.57 19.7337 23.0995 19.9417C23.3339 20.0339 23.5912 20.118 23.8637 20.2069C24.6002 20.4477 25.4351 20.7205 26.1846 21.28C27.9663 22.61 28.4049 25.1022 28.7252 26.922L28.7597 27.1183C28.9253 28.0515 29.0469 28.9683 29.1252 29.859C30.5471 29.7133 31.9619 29.4643 33.3492 29.1714C34.4704 28.9348 35.5844 28.6459 36.6631 28.2568C37.5249 27.9461 38.0333 27.8017 37.998 26.7719Z" fill="#2B4B7A"/>
<path d="M27.0009 28.0778L26.9662 27.8805C26.6667 26.1785 26.2564 23.8475 24.7017 22.6869C24.0461 22.1975 23.3038 21.9549 22.5859 21.7204C22.3032 21.628 22.0363 21.5408 21.7822 21.4409C21.4116 21.2953 21.0776 21.1526 20.7648 20.995C19.4504 22.7488 17.6289 23.6722 15.462 23.6724C13.2958 23.6724 11.4744 22.7489 10.1601 20.995C9.84721 21.1526 9.51327 21.2953 9.14257 21.4409C8.88857 21.5407 8.62156 21.6279 8.33896 21.7202C7.62103 21.9548 6.87861 22.1974 6.22307 22.6868C4.66795 23.8475 4.25789 26.179 3.9585 27.8813L3.92383 28.0778C3.67355 29.4908 3.52427 30.8614 3.48008 32.1517C3.42819 33.6655 4.36775 34.0029 5.19662 34.3007L5.28592 34.3328C6.28273 34.6925 7.39765 35.0005 8.69456 35.2746C11.3427 35.8336 13.4918 36.1004 15.4573 36.1143H15.4624H15.4675C17.4333 36.1004 19.5822 35.8335 22.2301 35.2746C23.5271 35.0006 24.6421 34.6926 25.6386 34.3329L25.7277 34.3009C26.5568 34.0032 27.4966 33.6657 27.4447 32.1517C27.4003 30.8583 27.2509 29.4875 27.0009 28.0778Z" fill="#2B4B7A"/>
<path d="M15.4627 21.9681C19.5136 21.9679 20.9712 17.912 21.3526 14.5801C21.8226 10.4757 19.8818 7.38666 15.4627 7.38666C11.0443 7.38666 9.10222 10.4753 9.57298 14.5801C9.9545 17.912 11.4118 21.9684 15.4627 21.9681Z" fill="#2B4B7A"/>
</g>
</svg>
