<svg width="20" height="17" viewBox="0 0 20 17" fill="none" xmlns="http://www.w3.org/2000/svg">
<path d="M19.2186 15.4309H15.3904V13.9139H16.3028C17.4823 13.9139 18.4822 13.0275 18.6285 11.852L19.9939 0.882051C20.0521 0.413885 19.6882 0.00012207 19.2186 0.00012207H17.525C16.3455 0.00012207 15.3457 0.886648 15.1994 2.06204L14.3037 9.25861H12.3306C11.0383 9.25861 9.98686 10.3145 9.98686 11.6125V13.1293C9.98686 13.5627 10.3367 13.9139 10.7681 13.9139H13.8279V15.4309H5.40358V13.9139H6.31591C7.49541 13.9139 8.49516 13.0275 8.64149 11.852L10.0068 0.882051C10.0651 0.413885 9.70137 0.00012207 9.2317 0.00012207H7.53813C6.35863 0.00012207 5.35888 0.886495 5.21254 2.06204L4.31686 9.25861H2.34375C1.05133 9.25861 0 10.3145 0 11.6125V13.1293C0 13.5627 0.349731 13.9139 0.781248 13.9139H3.84109V15.4309H0.781248C0.349731 15.4309 0 15.7821 0 16.2155C0 16.6489 0.349731 17.0001 0.781248 17.0001H19.2186C19.6501 17.0001 19.9998 16.6489 19.9998 16.2155C19.9998 15.7821 19.6501 15.4309 19.2186 15.4309ZM11.5494 11.6125C11.5494 11.1797 11.8998 10.8278 12.3306 10.8278H14.9934C15.3874 10.8278 15.7197 10.5332 15.7686 10.1405L16.7498 2.25666C16.7987 1.86481 17.1319 1.56936 17.525 1.56936H18.3337L17.0781 11.6574C17.0292 12.0492 16.696 12.3447 16.3029 12.3447H11.5494V11.6125ZM1.5625 11.6125C1.5625 11.1797 1.91299 10.8278 2.34375 10.8278H5.00655C5.40053 10.8278 5.73287 10.5332 5.7817 10.1405L6.76299 2.25666C6.81182 1.86481 7.14491 1.56936 7.53813 1.56936H8.34685L7.0912 11.6574C7.04237 12.0492 6.70912 12.3447 6.31591 12.3447H1.5625V11.6125Z" fill="#2B4060"/>
</svg>
