<svg width="40" height="40" viewBox="0 0 40 40" fill="none" xmlns="http://www.w3.org/2000/svg">
<g opacity="0.1">
<path d="M34.5305 10.3378C31.3187 9.29984 28.1763 7.79059 25.6824 6.08798C24.0375 4.96463 22.0726 4.37109 20 4.37109C17.9274 4.37109 15.9625 4.96463 14.3176 6.08798C11.8237 7.79059 8.68134 9.29984 5.46948 10.3378C3.39417 11.0085 2 12.9256 2 15.1086C2 16.1158 2.29855 17.0886 2.8638 17.9225L6.47061 23.2442C6.71341 23.6024 7.15012 23.776 7.57254 23.682C11.6965 22.7655 15.8779 22.3008 20 22.3008C24.1221 22.3008 28.3035 22.7655 32.4275 23.682C32.5035 23.6988 32.5804 23.707 32.6565 23.707C33.0012 23.707 33.3305 23.5376 33.5294 23.244L37.1362 17.9225C37.7014 17.0886 38 16.1158 38 15.1086C38 12.9256 36.6058 11.0085 34.5305 10.3378ZM24.8038 15.0924L22.7669 16.4503C22.2264 17.4223 21.189 18.082 20 18.082C18.811 18.082 17.7736 17.4223 17.2328 16.4503L15.1962 15.0924C14.7115 14.7694 14.5804 14.1143 14.9037 13.6298C15.2267 13.1451 15.8818 13.0143 16.3663 13.3373L17.0447 13.7894C17.5003 12.6007 18.6528 11.7539 20 11.7539C21.3472 11.7539 22.4997 12.6007 22.9553 13.7894L23.6337 13.3373C24.1182 13.0143 24.7733 13.1451 25.0963 13.6298C25.4193 14.1143 25.2885 14.7694 24.8038 15.0924Z" fill="#2B4060"/>
<path d="M20 13.8633C19.4185 13.8633 18.9453 14.3365 18.9453 14.918C18.9453 15.4994 19.4185 15.9727 20 15.9727C20.5815 15.9727 21.0547 15.4994 21.0547 14.918C21.0547 14.3365 20.5815 13.8633 20 13.8633Z" fill="#2B4060"/>
<path d="M32.885 25.8414C24.3352 23.9416 15.6648 23.9416 7.11496 25.8414C6.63239 25.9488 6.28906 26.3767 6.28906 26.8711C6.28906 28.8156 7.82797 30.5704 10.6223 31.8124C13.1448 32.9333 16.475 33.5507 20 33.5507C23.525 33.5507 26.8552 32.9333 29.3777 31.8124C32.172 30.5704 33.7109 28.8156 33.7109 26.8711C33.7109 26.3767 33.3676 25.9488 32.885 25.8414Z" fill="#2B4060"/>
</g>
</svg>
