<svg width="28" height="25" viewBox="0 0 28 25" fill="none" xmlns="http://www.w3.org/2000/svg">
<path d="M27.1094 12.1094C27.1094 10.4644 25.7544 9.10937 24.1094 9.10937L16.7654 9.10937L13.0154 0.703374L12.7654 0.109374L7.98438 0.109374L8.98437 9.10937L7.14037 9.10937L5.42237 6.54637L5.14037 6.10937L0.890375 6.10937L1.14037 7.29737L2.10937 12.1094L1.14037 16.9224L0.890374 18.1094L5.14037 18.1094L5.42237 17.6714L7.13938 15.1094L8.98337 15.1094L7.98337 24.1094L12.7644 24.1094L13.0144 23.5154L16.7654 15.1094L24.1094 15.1094C25.7544 15.1094 27.1094 13.7544 27.1094 12.1094ZM25.1094 12.1094C25.1094 12.6754 24.6754 13.1094 24.1094 13.1094L15.4534 13.1094L15.2034 13.7034L11.4534 22.1094L10.2344 22.1094L11.2344 13.1094L6.04637 13.1094L5.76637 13.5474L4.04538 16.1094L3.32737 16.1094L4.07737 12.2964L4.13938 12.1094L4.07737 11.9214L3.32738 8.10937L4.04538 8.10937L5.76537 10.6724L6.04538 11.1094L11.2334 11.1094L10.2334 2.10937L11.4524 2.10937L15.2024 10.5154L15.4524 11.1094L24.1094 11.1094C24.6754 11.1094 25.1094 11.5434 25.1094 12.1094Z" fill="#415370"/>
</svg>
