<svg width="28" height="25" viewBox="0 0 28 25" fill="none" xmlns="http://www.w3.org/2000/svg">
<path d="M0.890627 12.8906C0.890626 14.5356 2.24563 15.8906 3.89063 15.8906L11.2346 15.8906L14.9846 24.2966L15.2346 24.8906L20.0156 24.8906L19.0156 15.8906L20.8596 15.8906L22.5776 18.4536L22.8596 18.8906L27.1096 18.8906L26.8596 17.7026L25.8906 12.8906L26.8596 8.07763L27.1096 6.89063L22.8596 6.89063L22.5776 7.32863L20.8606 9.89063L19.0166 9.89063L20.0166 0.890628L15.2356 0.890627L14.9856 1.48463L11.2346 9.89063L3.89063 9.89063C2.24563 9.89063 0.890627 11.2456 0.890627 12.8906ZM2.89063 12.8906C2.89063 12.3246 3.32463 11.8906 3.89063 11.8906L12.5466 11.8906L12.7966 11.2966L16.5466 2.89063L17.7656 2.89063L16.7656 11.8906L21.9536 11.8906L22.2336 11.4526L23.9546 8.89063L24.6726 8.89063L23.9226 12.7036L23.8606 12.8906L23.9226 13.0786L24.6726 16.8906L23.9546 16.8906L22.2346 14.3276L21.9546 13.8906L16.7666 13.8906L17.7666 22.8906L16.5476 22.8906L12.7976 14.4846L12.5476 13.8906L3.89063 13.8906C3.32463 13.8906 2.89063 13.4566 2.89063 12.8906Z" fill="#415370"/>
</svg>
