<svg width="40" height="40" viewBox="0 0 40 40" fill="none" xmlns="http://www.w3.org/2000/svg">
<g opacity="0.1">
<path d="M16.2775 13.626H25.4684C25.1984 12.7897 24.8746 11.9811 24.4982 11.2092C23.3956 8.94863 21.8493 6.99753 20.0006 5.52655C18.1519 6.99753 16.6055 8.94863 15.503 11.2092C15.3718 11.4781 15.2473 11.7518 15.1289 12.0292C15.6616 12.4254 16.068 12.9816 16.2775 13.626Z" fill="#2B4060"/>
<path d="M16.2324 15.7496L24.989 22.6898C25.3867 22.4244 25.8465 22.2454 26.3415 22.1783C26.4145 21.46 26.452 20.7325 26.452 20C26.452 18.5067 26.298 17.0343 25.9986 15.6182H16.278C16.2636 15.6624 16.2486 15.7063 16.2324 15.7496Z" fill="#2B4060"/>
<path d="M23.7492 24.2504L14.9926 17.3102C14.6001 17.5722 14.1472 17.7501 13.6595 17.8192C13.5863 18.5384 13.5488 19.2666 13.5488 20C13.5488 21.4933 13.7028 22.9657 14.0022 24.3818H23.7036C23.718 24.3376 23.733 24.2937 23.7492 24.2504Z" fill="#2B4060"/>
<path d="M23.703 26.374H14.5312C14.8013 27.2104 15.125 28.0189 15.5015 28.7908C16.604 31.0514 18.1503 33.0024 19.9991 34.4735C21.8478 33.0024 23.3941 31.0514 24.4967 28.7908C24.6262 28.5252 24.7492 28.2551 24.8663 27.9813C24.3265 27.5845 23.9144 27.0242 23.703 26.374Z" fill="#2B4060"/>
<path d="M28.0293 15.6182C28.3027 17.0423 28.4429 18.5127 28.4429 20C28.4429 20.8523 28.3968 21.699 28.3061 22.5346C29.0308 22.9263 29.5891 23.587 29.8474 24.3818H36.4318C36.8058 22.9697 36.9999 21.4998 36.9999 20C36.9999 18.5002 36.8058 17.0304 36.4318 15.6182H28.0293Z" fill="#2B4060"/>
<path d="M11.9706 24.3818C11.6972 22.9577 11.5571 21.4873 11.5571 20C11.5571 19.1509 11.6028 18.3073 11.6929 17.4747C10.9595 17.0843 10.3939 16.4196 10.1334 15.6182H3.56818C3.19411 17.0304 3 18.5002 3 20C3 21.4998 3.19411 22.9697 3.56818 24.3818H11.9706Z" fill="#2B4060"/>
<path d="M29.8468 26.374C29.4259 27.6688 28.2083 28.6076 26.7749 28.6076C26.7714 28.6076 26.768 28.6074 26.7645 28.6074C26.615 28.9656 26.456 29.3182 26.2873 29.6641C24.927 32.4532 22.9534 34.8278 20.5799 36.5311C20.4064 36.6557 20.2027 36.7179 19.9991 36.7179C19.7955 36.7179 19.5919 36.6556 19.4183 36.5311C17.0448 34.8278 15.0713 32.4532 13.7109 29.6641C13.202 28.6206 12.7802 27.5181 12.4483 26.374H4.23047C5.07437 28.4625 6.33743 30.3802 7.97821 32.0209C11.1892 35.2318 15.4583 37.0002 19.9992 37.0002C24.5401 37.0002 28.8092 35.2318 32.0201 32.021C33.6609 30.3801 34.924 28.4626 35.7679 26.3741H29.8468V26.374Z" fill="#2B4060"/>
<path d="M10.1324 13.626C10.5533 12.3312 11.771 11.3924 13.2042 11.3924C13.2141 11.3924 13.2238 11.393 13.2336 11.3931C13.3832 11.0347 13.5422 10.682 13.711 10.3358C15.0713 7.54676 17.0449 5.17218 19.4184 3.46891C19.7656 3.21976 20.2328 3.21976 20.5799 3.46891C22.9534 5.17218 24.927 7.54676 26.2873 10.3358C26.7963 11.3793 27.2181 12.4819 27.55 13.626H35.7678C34.9239 11.5375 33.6609 9.61985 32.0201 7.97907C28.8092 4.76817 24.5401 2.99982 19.9992 2.99982C15.4583 2.99982 11.1892 4.76817 7.97821 7.979C6.33743 9.61985 5.07437 11.5374 4.23047 13.6259H10.1324V13.626Z" fill="#2B4060"/>
<path d="M13.2043 15.8595C13.8867 15.8595 14.4418 15.3043 14.4418 14.622C14.4418 13.9396 13.8867 13.3845 13.2043 13.3845C12.522 13.3845 11.9668 13.9396 11.9668 14.622C11.9668 15.3043 12.5219 15.8595 13.2043 15.8595Z" fill="#2B4060"/>
<path d="M26.7766 24.1404C26.0942 24.1404 25.5391 24.6955 25.5391 25.3779C25.5391 26.0603 26.0942 26.6154 26.7766 26.6154C27.459 26.6154 28.0141 26.0603 28.0141 25.3779C28.0141 24.6955 27.459 24.1404 26.7766 24.1404Z" fill="#2B4060"/>
</g>
</svg>
