<svg width="20" height="17" viewBox="0 0 20 17" fill="none" xmlns="http://www.w3.org/2000/svg">
<path d="M13.6658 11.434L10.4546 10C9.66149 10.7737 8.61187 11.2647 7.5 11.2647C6.38817 11.2647 5.33851 10.7738 4.54539 10L1.33418 11.434C0.600966 11.6882 0 12.5521 0 13.3541V17H15V13.3541C15 12.5521 14.3999 11.6882 13.6658 11.434ZM13.5937 15.5417H1.40632V13.3541C1.40632 13.1789 1.61915 12.8734 1.77991 12.817L4.2598 11.6365C5.22653 12.342 6.3506 12.7231 7.5 12.7231C8.64874 12.7231 9.77347 12.342 10.7396 11.6365L13.2207 12.8179C13.3808 12.8734 13.5937 13.1788 13.5937 13.354V15.5417Z" fill="#B58267"/>
<path d="M7.49997 0C5.23248 0 3.68212 1.84887 4.05551 4.11016L4.62019 7.53346C4.84384 8.89076 6.13905 10 7.50001 10C8.86097 10 10.1562 8.8906 10.3798 7.53351L10.9445 4.11016C11.3178 1.84887 9.76746 0 7.49997 0ZM9.56354 3.87731L8.99906 7.30149C8.88841 7.97305 8.17317 8.58516 7.49993 8.58516C6.82669 8.58516 6.11169 7.97305 6.00018 7.30086L5.43616 3.87731C5.32464 3.2009 5.47373 2.57772 5.85573 2.1218C6.2379 1.66589 6.82168 1.415 7.49972 1.415C8.17776 1.415 8.76241 1.66589 9.14438 2.1218C9.52597 2.57772 9.67505 3.20111 9.56354 3.87731Z" fill="#B58267"/>
<path fill-rule="evenodd" clip-rule="evenodd" d="M15.65 7.2V0H17.15V7.2H15.65Z" fill="#B58267"/>
<path fill-rule="evenodd" clip-rule="evenodd" d="M12.8 2.85001L20 2.85001V4.35001L12.8 4.35001V2.85001Z" fill="#B58267"/>
</svg>
