<svg width="80" height="80" viewBox="0 0 80 80" fill="none" xmlns="http://www.w3.org/2000/svg">
<g opacity="0.15">
<path d="M79.2984 30.2902L72.0059 22.9977C71.1385 22.1301 69.7563 22.0583 68.8034 22.8307C65.5087 25.5021 60.7588 25.2508 57.7539 22.2462C54.7493 19.2416 54.4986 14.4915 57.1693 11.1968C57.942 10.2439 57.8699 8.86155 57.0027 7.99416L49.71 0.701635C48.7746 -0.233782 47.2573 -0.233974 46.3221 0.701635L0.701707 46.3218C-0.233902 47.2573 -0.233902 48.7743 0.701707 49.7098L7.99423 57.0021C7.995 57.003 7.99596 57.004 7.99654 57.0046C8.93195 57.9402 10.449 57.9402 11.3844 57.0046C11.4715 56.9173 11.5507 56.8249 11.6218 56.7285C11.7853 56.5323 11.9569 56.344 12.1335 56.1672C15.3592 52.9416 20.6072 52.9416 23.8327 56.1668C27.0581 59.3923 27.0581 64.6409 23.8325 67.866C23.6296 68.0693 23.4109 68.2655 23.1828 68.4506C22.6556 68.8785 22.3347 69.5094 22.2991 70.1867C22.2638 70.8644 22.5178 71.5255 22.9978 72.0053L30.2899 79.2978C31.2255 80.2334 32.7426 80.2334 33.678 79.2978L79.2979 33.678C80.234 32.7427 80.2339 31.2259 79.2984 30.2902ZM48.4933 45.4614C48.4933 45.6491 48.402 45.8249 48.2492 45.9333C48.1499 46.0038 48.0323 46.0405 47.9137 46.0405C47.8499 46.0405 47.7854 46.0296 47.7235 46.0082L40.2769 43.4124C40.2085 45.7331 40.0178 47.8735 39.7252 49.5785C39.6722 49.8877 39.616 50.178 39.5576 50.4503L43.4352 52.605C43.5351 52.6605 43.597 52.7656 43.597 52.8801V54.1924C43.597 54.294 43.5476 54.3893 43.4647 54.4487C43.4109 54.4868 43.347 54.5067 43.2826 54.5067C43.2476 54.5067 43.2128 54.501 43.1792 54.4893L38.647 52.9094C38.4387 53.1715 38.1534 53.3915 37.7735 53.3915C37.3936 53.3915 37.108 53.1715 36.8997 52.9094L32.3675 54.4893C32.2713 54.5229 32.1648 54.5077 32.082 54.4487C31.9988 54.3893 31.9496 54.2938 31.9496 54.1924V52.8801C31.9496 52.7656 32.0115 52.6601 32.1114 52.605L35.9889 50.4503C35.9303 50.178 35.8744 49.8877 35.8213 49.5785C35.5287 47.8735 35.3385 45.7331 35.2697 43.4124L27.823 46.0082C27.6459 46.0697 27.4499 46.0423 27.2971 45.9333C27.1443 45.8249 27.0534 45.6491 27.0534 45.4614V43.0462C27.0534 42.8357 27.1674 42.6419 27.3511 42.5398L29.0332 41.6054V40.8446C29.0332 40.3329 29.4479 39.9182 29.9594 39.9182C30.3847 39.9182 30.7419 40.2049 30.851 40.595L32.2665 39.8087V39.1077C32.2665 38.596 32.6811 38.1813 33.1926 38.1813C33.5991 38.1813 33.9436 38.4434 34.0687 38.8074L35.3244 38.1095C35.4174 36.3117 35.5863 34.6626 35.8213 33.2937C36.0079 32.208 36.2281 31.3473 36.4766 30.7357C36.6026 30.4251 36.9862 29.4805 37.7737 29.4805C38.5611 29.4805 38.9447 30.4253 39.0707 30.7357C39.3192 31.3471 39.5394 32.2078 39.726 33.2937C39.961 34.6624 40.1299 36.3117 40.2229 38.1095L41.4784 38.8074C41.6031 38.4432 41.9475 38.1813 42.3543 38.1813C42.866 38.1813 43.2807 38.596 43.2807 39.1077V39.8087L44.6957 40.595C44.8048 40.2049 45.1626 39.9182 45.5877 39.9182C46.0994 39.9182 46.5137 40.3331 46.5137 40.8446V41.6054L48.1962 42.5398C48.3795 42.6419 48.4939 42.8357 48.4939 43.0462V45.4614H48.4933ZM64.2028 39.0768C63.2274 40.0524 61.6452 40.0524 60.67 39.0768L40.9233 19.3304C39.9479 18.3548 39.9479 16.7732 40.9233 15.7976C41.8987 14.822 43.4807 14.822 44.4561 15.7976L64.2034 35.5446C65.1784 36.5201 65.1784 38.1018 64.2028 39.0768Z" fill="#294A7A"/>
</g>
<path d="M62 46.25C53.3023 46.25 46.25 53.3023 46.25 62C46.25 70.6977 53.3023 77.75 62 77.75C70.6977 77.75 77.75 70.6977 77.75 62C77.75 53.3023 70.6977 46.25 62 46.25ZM68.8027 56.8566L61.3988 67.1223C61.2953 67.2667 61.1589 67.3844 61.0009 67.4656C60.8428 67.5468 60.6677 67.5891 60.49 67.5891C60.3124 67.5891 60.1372 67.5468 59.9792 67.4656C59.8211 67.3844 59.6847 67.2667 59.5813 67.1223L55.1973 61.0473C55.0637 60.8609 55.1973 60.6008 55.4258 60.6008H57.0746C57.4332 60.6008 57.7742 60.773 57.9852 61.0684L60.4883 64.5418L66.0148 56.8777C66.2258 56.5859 66.5633 56.4102 66.9254 56.4102H68.5742C68.8027 56.4102 68.9363 56.6703 68.8027 56.8566Z" fill="#5198FF"/>
</svg>
