<svg width="40" height="40" viewBox="0 0 40 40" fill="none" xmlns="http://www.w3.org/2000/svg">
<g opacity="0.15">
<g clip-path="url(#clip0)">
<path d="M27.6591 9.44698L26.0731 0.714782C25.9966 0.300896 25.6366 0 25.2174 0H14.7826C14.3635 0 14.0035 0.300896 13.927 0.714782L12.3409 9.44698C8.96173 11.9009 6.95654 15.8191 6.95654 20C6.95654 24.181 8.96173 28.0991 12.3409 30.5531L13.927 39.2853C14.0035 39.6992 14.3635 40.0001 14.7826 40.0001H25.2174C25.6365 40.0001 25.9965 39.6992 26.0731 39.2853L27.6591 30.5531C31.0383 28.0992 33.0435 24.181 33.0435 20C33.0435 15.8191 31.0383 11.9009 27.6591 9.44698ZM20 29.5652C14.7252 29.5652 10.4348 25.2747 10.4348 20C10.4348 14.7252 14.7252 10.4348 20 10.4348C25.2748 10.4348 29.5652 14.7252 29.5652 20C29.5652 25.2747 25.2748 29.5652 20 29.5652Z" fill="#2B4B7A"/>
<path d="M24.0939 22.8643L20.8696 19.64V14.7826C20.8696 14.3026 20.48 13.913 20 13.913C19.52 13.913 19.1304 14.3026 19.1304 14.7826V20C19.1304 20.2312 19.2226 20.4522 19.3843 20.6156L22.8626 24.0939C23.0331 24.2626 23.2556 24.3478 23.4782 24.3478C23.7009 24.3478 23.9234 24.2626 24.0939 24.0939C24.433 23.7548 24.433 23.2034 24.0939 22.8643Z" fill="#2B4B7A"/>
</g>
</g>
<defs>
<clipPath id="clip0">
<rect width="40" height="40" fill="white"/>
</clipPath>
</defs>
</svg>
