<svg width="66" height="65" viewBox="0 0 66 65" fill="none" xmlns="http://www.w3.org/2000/svg">
<path d="M2.67342 0H58.481C59.1494 0 59.8177 0.334177 60.319 0.835443C60.8203 1.33671 61.1544 2.00506 61.1544 2.67342V20.0506H58.8152V2.67342C58.8152 2.67342 58.8152 2.50633 58.6481 2.50633C58.6481 2.50633 58.6481 2.33924 58.481 2.33924H2.67342L2.33924 2.67342V22.7241L2.50633 22.8911H6.01519V25.3975H2.67342C2.00506 25.3975 1.33671 25.0633 0.835443 24.562C0.334177 24.0608 0 23.3924 0 22.7241V2.67342C0 2.00506 0.334177 1.33671 0.835443 0.835443C1.33671 0.334177 2.00506 0 2.67342 0Z" fill="#2B4B7A"/>
<path d="M2.67342 38.9316H6.01519V41.2709H2.67342C2.67342 41.2709 2.50633 41.2709 2.50633 41.438L2.33924 41.6051V61.6557L2.50633 61.8228H58.481C58.6481 61.8228 58.6481 61.8228 58.6481 61.8228C58.8152 61.8228 58.8152 61.6557 58.8152 61.6557V43.1089H61.1544V61.6557C61.1544 62.3241 60.8203 62.9924 60.319 63.4937C59.8177 63.9949 59.1494 64.3291 58.481 64.3291H2.67342C2.00506 64.3291 1.33671 63.9949 0.835443 63.4937C0.334177 62.9924 0 62.3241 0 61.6557V41.6051C0 40.9367 0.334177 40.2683 0.835443 39.7671C1.33671 39.2658 2.00506 38.9316 2.67342 38.9316Z" fill="#2B4B7A"/>
<path fill-rule="evenodd" clip-rule="evenodd" d="M52.2987 14.0355H44.6126C42.7747 14.0355 41.2709 15.3722 41.2709 17.2102C41.2709 18.3798 41.9392 19.5494 42.9418 20.0507H53.8025C54.8051 19.5494 55.4734 18.3798 55.4734 17.2102C55.4734 15.3722 53.9696 14.0355 52.2987 14.0355ZM52.2987 18.3798H44.6126C43.9443 18.3798 43.443 17.8786 43.443 17.2102C43.443 16.7089 43.9443 16.2077 44.6126 16.2077H52.2987C52.8 16.2077 53.3013 16.7089 53.3013 17.2102C53.3013 17.8786 52.8 18.3798 52.2987 18.3798Z" fill="#2B4B7A"/>
<path fill-rule="evenodd" clip-rule="evenodd" d="M52.2987 52.9672H44.6126C42.7747 52.9672 41.2709 54.3039 41.2709 56.1418C41.2709 57.9798 42.7747 59.4836 44.6126 59.4836H52.2987C53.9696 59.4836 55.4734 57.9798 55.4734 56.1418C55.4734 54.3039 53.9696 52.9672 52.2987 52.9672ZM52.2987 57.3115H44.6126C43.9443 57.3115 43.443 56.8102 43.443 56.1418C43.443 55.6406 43.9443 55.1393 44.6126 55.1393H52.2987C52.8 55.1393 53.3013 55.6406 53.3013 56.1418C53.3013 56.8102 52.8 57.3115 52.2987 57.3115Z" fill="#2B4B7A"/>
<path fill-rule="evenodd" clip-rule="evenodd" d="M12.8658 7.85315L11.1949 9.02277L13.0329 11.6962H9.85821V10.5266H7.85315V13.7013H13.0329L11.1949 16.2076L12.8658 17.5443L15.7063 13.7013H19.3823V11.6962H15.7063L12.8658 7.85315Z" fill="#2B4B7A"/>
<path fill-rule="evenodd" clip-rule="evenodd" d="M12.8658 46.7848L11.1949 47.9544L13.0329 50.6278H9.85821V49.4582H7.85315V52.6329H13.0329L11.1949 55.1392L12.8658 56.4759L15.7063 52.6329H19.3823V50.6278H15.7063L12.8658 46.7848Z" fill="#2B4B7A"/>
<path d="M7.35188 18.8811H63.1595C63.9949 18.8811 64.6633 19.2153 65.1646 19.7165C65.6658 20.2178 66 20.8862 66 21.5545V41.6052C66 42.2735 65.6658 42.9419 65.1646 43.4431C64.6633 43.9444 63.9949 44.2786 63.1595 44.2786H7.35188C6.68353 44.2786 6.01518 43.9444 5.51391 43.4431C5.01264 42.9419 4.67847 42.2735 4.67847 41.6052V21.5545C4.67847 20.8862 5.01264 20.2178 5.51391 19.7165C6.01518 19.2153 6.68353 18.8811 7.35188 18.8811ZM63.1595 21.2203H7.35188C7.35188 21.2203 7.35188 21.3874 7.1848 21.3874V41.7722C7.35188 41.7722 7.35188 41.7722 7.35188 41.7722H63.1595C63.3266 41.7722 63.3266 41.7722 63.4937 41.7722V21.3874C63.3266 21.3874 63.3266 21.2203 63.1595 21.2203Z" fill="#2B4B7A"/>
<path fill-rule="evenodd" clip-rule="evenodd" d="M18.5468 24.5619L19.8835 27.4024L23.0582 27.9037C23.3924 27.9037 23.5595 28.0708 23.8937 28.2379C24.0607 28.4049 24.2278 28.572 24.2278 28.9062C24.3949 29.2404 24.3949 29.4075 24.2278 29.7417C24.2278 29.9087 24.0607 30.2429 23.8937 30.41L21.7215 32.5822L22.2228 35.7568C22.2228 36.091 22.2228 36.2581 22.0557 36.5923C22.0557 36.7594 21.8886 37.0936 21.5544 37.2606C21.3873 37.2606 21.0531 37.4277 20.8861 37.4277C20.5519 37.4277 20.2177 37.4277 20.0506 37.2606L17.3772 35.7568L14.3696 37.2606C14.2025 37.4277 13.8683 37.4277 13.7012 37.4277C13.3671 37.4277 13.2 37.2606 12.8658 37.2606C12.6987 37.0936 12.5316 36.7594 12.3645 36.5923C12.3645 36.2581 12.1974 36.091 12.3645 35.7568L12.8658 32.7493L10.5266 30.41C10.3595 30.2429 10.1924 29.9087 10.1924 29.7417C10.1924 29.4075 10.1924 29.2404 10.1924 28.9062C10.3595 28.572 10.5266 28.4049 10.6936 28.2379C10.8607 28.0708 11.1949 27.9037 11.362 27.9037L14.5367 27.5695L15.8734 24.5619C16.0405 24.3948 16.2076 24.2277 16.5417 24.0606C16.7088 23.8936 17.043 23.8936 17.2101 23.8936C17.5443 23.8936 17.8785 23.8936 18.0455 24.0606C18.2126 24.2277 18.3797 24.3948 18.5468 24.5619ZM18.3797 28.7391L17.2101 26.3999L16.0405 28.9062L15.7063 29.2404L15.205 29.4075L12.6987 29.7417L14.5367 31.7467L15.038 32.0809L14.8709 32.5822L14.3696 35.0885L16.8759 33.9189L17.3772 33.5847L17.7114 33.9189L20.0506 35.0885L19.7164 32.4151L19.5493 31.9138L19.8835 31.5796L21.8886 29.7417L19.0481 29.2404H18.5468L18.3797 28.7391Z" fill="#2B4B7A"/>
<path fill-rule="evenodd" clip-rule="evenodd" d="M57.1443 32.9165H49.4582C47.6203 32.9165 46.1165 34.2532 46.1165 36.0912C46.1165 37.9292 47.6203 39.433 49.4582 39.433H57.1443C58.9823 39.433 60.4861 37.9292 60.4861 36.0912C60.4861 34.2532 58.9823 32.9165 57.1443 32.9165ZM57.1443 37.2608H49.4582C48.7899 37.2608 48.2886 36.7595 48.2886 36.0912C48.2886 35.5899 48.7899 35.0887 49.4582 35.0887H57.1443C57.8127 35.0887 58.3139 35.5899 58.3139 36.0912C58.3139 36.7595 57.8127 37.2608 57.1443 37.2608Z" fill="#2B4B7A"/>
<path fill-rule="evenodd" clip-rule="evenodd" d="M27.7367 25.2303H31.0785V27.4025H27.7367V25.2303Z" fill="#2B4B7A"/>
<path fill-rule="evenodd" clip-rule="evenodd" d="M27.7367 29.5747H31.0785V31.7469H27.7367V29.5747Z" fill="#2B4B7A"/>
<path fill-rule="evenodd" clip-rule="evenodd" d="M27.7367 34.2533H31.0785V36.4254H27.7367V34.2533Z" fill="#2B4B7A"/>
<path fill-rule="evenodd" clip-rule="evenodd" d="M33.2506 25.2303H56.1418V27.4025H33.2506V25.2303Z" fill="#2B4B7A"/>
<path fill-rule="evenodd" clip-rule="evenodd" d="M33.2506 29.5747H41.1038V31.7469H33.2506V29.5747Z" fill="#2B4B7A"/>
<path fill-rule="evenodd" clip-rule="evenodd" d="M33.2506 34.2533H41.1038V36.4254H33.2506V34.2533Z" fill="#2B4B7A"/>
<path fill-rule="evenodd" clip-rule="evenodd" d="M22.8911 7.18481H26.0658V9.35697H22.8911V7.18481Z" fill="#2B4B7A"/>
<path fill-rule="evenodd" clip-rule="evenodd" d="M22.8911 11.5291H26.0658V13.7012H22.8911V11.5291Z" fill="#2B4B7A"/>
<path fill-rule="evenodd" clip-rule="evenodd" d="M28.238 7.18481H44.6127V9.35697H28.238V7.18481Z" fill="#2B4B7A"/>
<path fill-rule="evenodd" clip-rule="evenodd" d="M28.238 11.5291H36.2582V13.7012H28.238V11.5291Z" fill="#2B4B7A"/>
<path fill-rule="evenodd" clip-rule="evenodd" d="M22.8911 48.2886H26.0658V50.4607H22.8911V48.2886Z" fill="#2B4B7A"/>
<path fill-rule="evenodd" clip-rule="evenodd" d="M22.8911 52.6331H26.0658V54.8052H22.8911V52.6331Z" fill="#2B4B7A"/>
<path fill-rule="evenodd" clip-rule="evenodd" d="M28.238 48.2886H44.6127V50.4607H28.238V48.2886Z" fill="#2B4B7A"/>
<path fill-rule="evenodd" clip-rule="evenodd" d="M28.238 52.6331H36.2582V54.8052H28.238V52.6331Z" fill="#2B4B7A"/>
</svg>
