<svg width="66" height="40" viewBox="0 0 66 40" fill="none" xmlns="http://www.w3.org/2000/svg">
<path fill-rule="evenodd" clip-rule="evenodd" d="M19.0282 13.4604L17.5645 12.9326C16.3669 12.4047 15.3024 11.8768 14.371 11.085C13.3065 10.4252 12.375 9.63343 11.5766 8.70968L5.58871 2.2434H2.66129L5.18952 10.2933L6.25403 13.5924L19.0282 13.4604ZM15.8347 33.2551C16.3669 33.2551 16.8992 33.783 16.8992 34.4428C16.8992 34.9707 16.3669 35.4985 15.8347 35.4985L12.2419 35.3666C11.7097 35.3666 11.1774 34.9707 11.1774 34.3108C11.1774 33.783 11.7097 33.2551 12.2419 33.2551H15.8347ZM14.504 37.478C15.0363 37.478 15.5685 38.0059 15.5685 38.5337C15.5685 39.1935 15.0363 39.7214 14.504 39.7214H7.45161C6.78629 39.7214 6.3871 39.1935 6.3871 38.6657C6.3871 38.0059 6.78629 37.478 7.45161 37.478H14.504ZM61.3427 19.6628H50.8306V17.4194H56.5524L56.4194 17.2874C55.0887 16.7595 53.7581 16.3636 52.1613 15.9677C50.5645 15.7038 48.7016 15.5718 46.3065 15.5718L37.7903 15.7038H6.65323V15.8358C6.65323 16.4956 6.91936 17.1554 7.18548 17.6833C7.58468 18.3431 8.11694 18.739 8.78226 19.0029L17.8306 23.0938C18.3629 23.3578 18.8952 23.4897 19.2944 23.7537H19.4274C19.9597 23.8856 20.3589 24.0176 20.8911 24.1496C21.4234 24.2815 21.8226 24.9413 21.6895 25.4692C21.5565 26.129 20.8911 26.393 20.3589 26.261C19.8266 26.129 19.1613 25.9971 18.629 25.7331C18.0968 25.6012 17.5645 25.3372 17.0323 25.0733L7.85081 20.9824C6.78629 20.5865 5.9879 19.7947 5.32258 18.871C4.79032 18.0792 4.52419 17.0235 4.52419 15.8358V15.176C4.39113 15.176 4.39113 15.044 4.39113 14.912L3.06048 10.9531L0 1.45161C0 1.31965 0 1.18768 0 1.05572C0 0.527859 0.532258 0 1.06452 0H5.9879C6.3871 0 6.65323 0.131965 6.91936 0.395894L13.1734 7.1261C13.9718 8.04985 14.7702 8.70968 15.5685 9.3695C16.5 10.0293 17.4315 10.4252 18.496 10.9531L23.0202 12.8006L19.1613 5.27859C18.8952 4.61877 19.1613 3.95894 19.6936 3.69501C19.8266 3.69501 19.9597 3.69501 20.0927 3.69501L26.3468 3.56305C26.6129 3.56305 26.879 3.69501 27.0121 3.82698L38.1895 13.4604H46.3065C48.8347 13.4604 50.8306 13.5924 52.5605 13.8563C54.2903 14.2522 55.8871 14.6481 57.3508 15.3079L63.7379 18.3431C64.6694 18.871 65.2016 19.5308 65.6008 20.0587V20.1906C66 20.7185 66 21.3783 66 21.9062C65.8669 22.566 65.6008 23.0938 65.0686 23.4897C64.6694 24.0176 64.004 24.2815 63.2057 24.5455L57.8831 25.6012C56.5524 25.8651 54.9557 26.129 53.2258 26.393C51.496 26.6569 49.6331 26.9208 48.3024 26.9208H41.1169L26.4798 39.5894C26.3468 39.8534 26.0806 39.9853 25.8145 39.9853H18.629C18.3629 39.9853 18.2298 39.9853 17.9637 39.8534C17.4315 39.5894 17.2984 38.9296 17.5645 38.4018L24.8831 23.7537V23.6217C25.0161 23.2258 25.2823 22.9619 25.6815 22.6979C26.0806 22.566 26.4798 22.434 26.879 22.434H27.0121L40.1855 22.3021C40.7177 22.3021 41.1169 22.434 41.5161 22.6979C41.9153 22.9619 42.1815 23.3578 42.3145 23.8856C42.4476 24.1496 42.5806 24.4135 42.5806 24.6774H48.3024C49.6331 24.6774 51.2298 24.5455 52.8266 24.2815C54.4234 24.0176 56.1532 23.7537 57.3508 23.4897L62.8065 22.3021C63.2056 22.3021 63.4718 22.1701 63.6048 21.9062C63.7379 21.9062 63.7379 21.7742 63.7379 21.6422C63.7379 21.5103 63.7379 21.3783 63.7379 21.2463L63.6048 21.1144C63.4718 20.8504 63.2056 20.5865 62.6734 20.3226L61.3427 19.6628ZM21.9556 5.80645L25.8145 13.4604H34.8629L25.9476 5.80645H21.9556ZM40.1855 24.5455H27.0121C26.879 24.5455 26.879 24.5455 26.879 24.5455C26.879 24.5455 26.879 24.5455 26.879 24.6774H26.746L20.2258 37.7419H25.2823L40.3186 24.8094C40.3186 24.6774 40.3186 24.6774 40.3186 24.6774C40.3186 24.6774 40.3186 24.6774 40.3186 24.5455C40.1855 24.5455 40.1855 24.5455 40.1855 24.5455ZM27.2782 18.3431C27.2782 17.6833 27.6774 17.1554 28.3427 17.1554C29.0081 17.1554 29.4073 17.6833 29.4073 18.3431V19.3988C29.4073 19.9267 29.0081 20.4545 28.3427 20.4545C27.6774 20.4545 27.2782 19.9267 27.2782 19.3988V18.3431ZM31.6694 18.3431C31.6694 17.6833 32.2016 17.1554 32.7339 17.1554C33.3992 17.1554 33.7984 17.6833 33.7984 18.3431V19.3988C33.7984 19.9267 33.3992 20.4545 32.7339 20.4545C32.2016 20.4545 31.6694 19.9267 31.6694 19.3988V18.3431ZM36.0605 18.2111C36.0605 17.6833 36.5927 17.1554 37.125 17.1554C37.7903 17.1554 38.3226 17.6833 38.3226 18.2111V19.3988C38.3226 19.9267 37.7903 20.4545 37.125 20.4545C36.5927 20.4545 36.0605 19.9267 36.0605 19.3988V18.2111ZM40.5847 18.2111C40.5847 17.6833 40.9839 17.1554 41.6492 17.1554C42.1815 17.1554 42.7137 17.6833 42.7137 18.2111V19.3988C42.7137 19.9267 42.1815 20.4545 41.6492 20.4545C40.9839 20.4545 40.5847 19.9267 40.5847 19.3988V18.2111ZM44.9758 18.2111C44.9758 17.6833 45.5081 17.1554 46.0403 17.1554C46.7056 17.1554 47.1048 17.6833 47.1048 18.2111V19.3988C47.1048 19.9267 46.7056 20.4545 46.0403 20.4545C45.5081 20.4545 44.9758 19.9267 44.9758 19.3988V18.2111Z" fill="url(#paint0_linear)"/>
<defs>
<linearGradient id="paint0_linear" x1="33" y1="0" x2="33" y2="39.9853" gradientUnits="userSpaceOnUse">
<stop stop-color="#EFAE9F"/>
<stop offset="1" stop-color="#B58267"/>
</linearGradient>
</defs>
</svg>
