<svg width="62" height="62" viewBox="0 0 62 62" fill="none" xmlns="http://www.w3.org/2000/svg">
<path d="M43.7121 32.0683C44.3435 32.1374 44.9101 31.6059 44.9101 30.9486V28.8466C44.9101 28.4754 44.734 28.1289 44.4394 27.9188L31.0143 18.3441V14.1319C31.0143 11.6828 29.239 7 26.4548 7C23.6711 7 21.8952 11.6828 21.8952 14.1319V18.3441L8.47007 27.9182C8.17551 28.1283 8.00002 28.4754 8.00002 28.8466V30.9486C8.00002 31.6059 8.56657 32.1374 9.19802 32.0683L21.8952 30.6963V35.8263L18.8119 38.4914C18.5648 38.7057 18.4214 39.0223 18.4214 39.3566V41.7589C18.4214 42.4443 19.0337 42.9823 19.6855 42.8699L26.4548 41.6997L33.2241 42.8699C33.8764 42.9823 34.4886 42.4443 34.4886 41.7589V39.3566C34.4886 39.0223 34.3453 38.7057 34.0981 38.4914L31.0803 35.8831C31.0588 35.8649 31.0368 35.8486 31.0143 35.8316V30.6963L43.7121 32.0683ZM42.7392 29.4389V29.6988L31.0143 28.4321V21.0772L42.7392 29.4389ZM24.0667 14.1319C24.0667 12.2617 25.54 9.25185 26.4548 9.25185C27.37 9.25185 28.8434 12.2617 28.8434 14.1319V36.9543C28.8434 37.9148 28.3124 38.7472 27.5405 39.1581V34.552C27.5405 33.9298 27.0546 33.4258 26.4548 33.4258C25.8555 33.4258 25.3696 33.9298 25.3696 34.552V39.1581C24.5971 38.7472 24.0667 37.9148 24.0667 36.9543V14.1319ZM10.1709 29.6988V29.4389L21.8952 21.0772V28.4321L10.1709 29.6988ZM20.5928 39.884L22.1571 38.5318C22.345 39.0803 22.6271 39.5819 22.9838 40.0163L20.5928 40.4295V39.884ZM32.3172 39.884V40.4295L29.9257 40.0163C30.2824 39.5819 30.5651 39.0803 30.7524 38.5318L32.3172 39.884Z" fill="#2B4B7A"/>
<path d="M25.7446 0C39.9406 0 51.4903 11.5486 51.4903 25.7446C51.4903 30.747 50.0707 35.5523 47.3742 39.7139C62.4052 54.7423 45.4885 37.8276 60 52.3386C62.1167 54.4553 62.1172 57.8828 60 60C57.8828 62.1167 54.4559 62.1172 52.3386 60C49.0137 56.6751 42.96 50.6203 39.7144 47.3742C35.5528 50.0707 30.7476 51.4903 25.7446 51.4903C11.5492 51.4903 0 39.9406 0 25.7446C0 11.5486 11.5492 0 25.7446 0ZM54.2508 58.0878C55.3084 59.1459 57.0297 59.1459 58.0878 58.0878C59.148 57.0276 59.148 55.311 58.0878 54.2508L50.6986 46.8615L46.8615 50.6986L54.2508 58.0878ZM25.7446 48.7859C30.5668 48.7859 35.1834 47.3129 39.095 44.526C39.633 44.1428 40.3687 44.2041 40.8359 44.6714L44.9494 48.7859L48.7864 44.9488L44.6714 40.8359C44.2047 40.3687 44.1434 39.633 44.5266 39.095C47.3129 35.1834 48.7859 30.5668 48.7859 25.7446C48.7859 13.0401 38.4497 2.70442 25.7446 2.70442C13.0401 2.70442 2.70443 13.0401 2.70443 25.7446C2.70443 38.4496 13.0401 48.7859 25.7446 48.7859Z" fill="#2B4B7A"/>
</svg>
