<svg width="66" height="57" viewBox="0 0 66 57" fill="none" xmlns="http://www.w3.org/2000/svg">
<path d="M55.4288 22.2643V41.9775C55.4288 43.369 54.733 44.7605 53.8054 45.6882C52.8777 46.6158 51.4862 47.3116 50.0946 47.3116H37.3391L38.2667 53.5734H41.0498C41.7455 53.5734 42.4413 54.0373 42.4413 54.733C42.4413 55.4288 41.7455 56.1246 41.0498 56.1246H14.379C13.6833 56.1246 12.9875 55.4288 12.9875 54.733C12.9875 54.0373 13.6833 53.5734 14.379 53.5734H17.1621L18.0897 49.3989L18.3217 47.7755L18.5536 47.3116H5.33415C3.94263 47.3116 2.55112 46.6158 1.62344 45.6882C0.695759 44.7605 0 43.369 0 41.9775V11.8279C0 10.4364 0.695759 9.04487 1.62344 8.11719C2.55112 7.18951 3.94263 6.72567 5.33415 6.72567H43.369V9.27679H5.33415C4.63839 9.27679 3.94263 9.50871 3.24688 9.97255C2.78304 10.4364 2.55112 11.1321 2.55112 11.8279V36.6433H52.8777V22.2643H55.4288ZM55.8926 4.87031V9.27679L59.1395 11.1321L57.748 13.4513L53.8054 11.1321L53.3415 10.6683V4.87031H55.8926ZM55.1969 0C57.9799 0 60.531 1.1596 62.1545 3.01496C64.0098 4.63839 65.1694 7.18951 65.1694 9.97255C65.1694 12.7556 64.0098 15.3067 62.1545 17.1621C60.531 18.7855 57.9799 19.9451 55.1969 19.9451C52.4138 19.9451 49.8627 18.7855 48.0074 17.1621C46.3839 15.3067 45.2243 12.7556 45.2243 9.97255C45.2243 7.18951 46.3839 4.63839 48.0074 3.01496C49.8627 1.1596 52.4138 0 55.1969 0ZM60.531 4.63839C59.1395 3.4788 57.2842 2.55112 55.1969 2.55112C53.1096 2.55112 51.2542 3.4788 49.8627 4.63839C48.4712 6.02991 47.7755 7.88527 47.7755 9.97255C47.7755 12.0598 48.4712 13.9152 49.8627 15.3067C51.2542 16.6982 53.1096 17.394 55.1969 17.394C57.2842 17.394 59.1395 16.6982 60.531 15.3067C61.6906 13.9152 62.6183 12.0598 62.6183 9.97255C62.6183 7.88527 61.6906 6.02991 60.531 4.63839ZM39.6583 22.0324V25.975H46.6159V22.0324H39.6583ZM37.1071 25.975V22.0324H8.81295V25.975H37.1071ZM49.167 19.4813V28.5261H6.26183V19.4813H49.167ZM34.7879 47.3116H21.1047L20.8728 48.2393L20.4089 49.8627L19.7132 53.5734H35.7156L34.7879 47.3116ZM21.8004 25.2792H19.4813V22.7281H21.8004V25.2792ZM17.8578 25.2792H15.3067V22.7281H17.8578V25.2792ZM13.6833 25.2792H11.1321V22.7281H13.6833V25.2792ZM28.99 40.354V42.9051H26.4388V40.354H28.99ZM2.55112 39.1944V41.9775C2.55112 42.6732 2.78304 43.369 3.24688 43.8328C3.94263 44.2967 4.63839 44.7605 5.33415 44.7605H50.0946C50.7904 44.7605 51.4862 44.2967 51.95 43.8328C52.6458 43.369 52.8777 42.6732 52.8777 41.9775V39.1944H2.55112Z" fill="#2B4B7A"/>
</svg>
