<svg width="65" height="52" viewBox="0 0 65 52" fill="none" xmlns="http://www.w3.org/2000/svg">
<path d="M22.75 32.5H26V9.75H22.75C20.9554 9.75 19.5 11.2054 19.5 13V29.25C19.5 31.0446 20.9554 32.5 22.75 32.5ZM58.5 29.25V13C58.5 11.2054 57.0446 9.75 55.25 9.75H52V32.5H55.25C57.0446 32.5 58.5 31.0446 58.5 29.25ZM63.375 39H13V1.625C13 0.727188 12.2728 0 11.375 0H1.625C0.727188 0 0 0.727188 0 1.625V4.875C0 5.77281 0.727188 6.5 1.625 6.5H6.5V43.875C6.5 44.7728 7.22719 45.5 8.125 45.5H16.5486C16.3668 46.0109 16.25 46.5522 16.25 47.125C16.25 49.8174 18.4326 52 21.125 52C23.8174 52 26 49.8174 26 47.125C26 46.5522 25.8832 46.0109 25.7014 45.5H45.7986C45.6168 46.0109 45.5 46.5522 45.5 47.125C45.5 49.8174 47.6826 52 50.375 52C53.0674 52 55.25 49.8174 55.25 47.125C55.25 46.5522 55.1332 46.0109 54.9514 45.5H63.375C64.2728 45.5 65 44.7728 65 43.875V40.625C65 39.7272 64.2728 39 63.375 39ZM48.75 9.75V4.875C48.75 2.18258 46.5674 0 43.875 0H34.125C31.4326 0 29.25 2.18258 29.25 4.875V32.5H48.75V9.75ZM43.875 9.75H34.125V4.875H43.875V9.75Z" fill="white" fill-opacity="0.6"/>
</svg>
