<svg width="62" height="46" viewBox="0 0 62 46" fill="none" xmlns="http://www.w3.org/2000/svg">
<path d="M52.7 16.4286H51.15L40.6119 2.46634C40.0309 1.69685 39.2941 1.07567 38.456 0.648757C37.6179 0.221843 36.7 0.000123224 35.7701 0H15.0476C12.5124 0 10.2329 1.63567 9.29128 4.13076L4.65 16.6606C1.98012 17.3937 0 19.9412 0 23V34.5C0 35.4077 0.693625 36.1429 1.55 36.1429H6.2C6.2 41.5869 10.3637 46 15.5 46C20.6363 46 24.8 41.5869 24.8 36.1429H37.2C37.2 41.5869 41.3637 46 46.5 46C51.6363 46 55.8 41.5869 55.8 36.1429H60.45C61.3064 36.1429 62 35.4077 62 34.5V26.2857C62 20.8417 57.8363 16.4286 52.7 16.4286ZM15.5 41.0714C12.9357 41.0714 10.85 38.8608 10.85 36.1429C10.85 33.425 12.9357 31.2143 15.5 31.2143C18.0643 31.2143 20.15 33.425 20.15 36.1429C20.15 38.8608 18.0643 41.0714 15.5 41.0714ZM22.475 16.4286H11.3276L15.0476 6.57143H22.475V16.4286ZM27.125 16.4286V6.57143H35.7701L43.2101 16.4286H27.125ZM46.5 41.0714C43.9357 41.0714 41.85 38.8608 41.85 36.1429C41.85 33.425 43.9357 31.2143 46.5 31.2143C49.0643 31.2143 51.15 33.425 51.15 36.1429C51.15 38.8608 49.0643 41.0714 46.5 41.0714Z" fill="white" fill-opacity="0.6"/>
</svg>
