<svg width="62" height="49" viewBox="0 0 62 49" fill="none" xmlns="http://www.w3.org/2000/svg">
<path d="M56.8333 0H5.16667C2.31424 0 0 2.35156 0 5.25V43.75C0 46.6484 2.31424 49 5.16667 49H56.8333C59.6858 49 62 46.6484 62 43.75V5.25C62 2.35156 59.6858 0 56.8333 0ZM18.9444 10.5C22.7441 10.5 25.8333 13.6391 25.8333 17.5C25.8333 21.3609 22.7441 24.5 18.9444 24.5C15.1448 24.5 12.0556 21.3609 12.0556 17.5C12.0556 13.6391 15.1448 10.5 18.9444 10.5ZM31 36.4C31 37.5594 29.9236 38.5 28.5889 38.5H9.3C7.96528 38.5 6.88889 37.5594 6.88889 36.4V34.3C6.88889 30.8219 10.1288 28 14.1222 28H14.6604C15.9844 28.5578 17.4267 28.875 18.9444 28.875C20.4622 28.875 21.9153 28.5578 23.2285 28H23.7667C27.7601 28 31 30.8219 31 34.3V36.4ZM55.1111 30.625C55.1111 31.1063 54.7236 31.5 54.25 31.5H38.75C38.2764 31.5 37.8889 31.1063 37.8889 30.625V28.875C37.8889 28.3937 38.2764 28 38.75 28H54.25C54.7236 28 55.1111 28.3937 55.1111 28.875V30.625ZM55.1111 23.625C55.1111 24.1063 54.7236 24.5 54.25 24.5H38.75C38.2764 24.5 37.8889 24.1063 37.8889 23.625V21.875C37.8889 21.3937 38.2764 21 38.75 21H54.25C54.7236 21 55.1111 21.3937 55.1111 21.875V23.625ZM55.1111 16.625C55.1111 17.1063 54.7236 17.5 54.25 17.5H38.75C38.2764 17.5 37.8889 17.1063 37.8889 16.625V14.875C37.8889 14.3938 38.2764 14 38.75 14H54.25C54.7236 14 55.1111 14.3938 55.1111 14.875V16.625Z" fill="white" fill-opacity="0.6"/>
</svg>
