<svg width="64" height="45" viewBox="0 0 64 45" fill="none" xmlns="http://www.w3.org/2000/svg">
<path d="M9.6 19.2857C13.13 19.2857 16 16.4029 16 12.8571C16 9.31138 13.13 6.42857 9.6 6.42857C6.07 6.42857 3.2 9.31138 3.2 12.8571C3.2 16.4029 6.07 19.2857 9.6 19.2857ZM54.4 19.2857C57.93 19.2857 60.8 16.4029 60.8 12.8571C60.8 9.31138 57.93 6.42857 54.4 6.42857C50.87 6.42857 48 9.31138 48 12.8571C48 16.4029 50.87 19.2857 54.4 19.2857ZM57.6 22.5H51.2C49.44 22.5 47.85 23.2132 46.69 24.3683C50.72 26.5882 53.58 30.596 54.2 35.3571H60.8C62.57 35.3571 64 33.9208 64 32.1429V28.9286C64 25.3828 61.13 22.5 57.6 22.5ZM32 22.5C38.19 22.5 43.2 17.4676 43.2 11.25C43.2 5.03237 38.19 0 32 0C25.81 0 20.8 5.03237 20.8 11.25C20.8 17.4676 25.81 22.5 32 22.5ZM39.68 25.7143H38.85C36.77 26.7187 34.46 27.3214 32 27.3214C29.54 27.3214 27.24 26.7187 25.15 25.7143H24.32C17.96 25.7143 12.8 30.8973 12.8 37.2857V40.1786C12.8 42.8404 14.95 45 17.6 45H46.4C49.05 45 51.2 42.8404 51.2 40.1786V37.2857C51.2 30.8973 46.04 25.7143 39.68 25.7143ZM17.31 24.3683C16.15 23.2132 14.56 22.5 12.8 22.5H6.4C2.87 22.5 0 25.3828 0 28.9286V32.1429C0 33.9208 1.43 35.3571 3.2 35.3571H9.79C10.42 30.596 13.28 26.5882 17.31 24.3683Z" fill="white" fill-opacity="0.6"/>
</svg>
