<svg width="208" height="45" viewBox="0 0 208 45" fill="none" xmlns="http://www.w3.org/2000/svg">
<g clip-path="url(#clip0)">
<path d="M138.894 41.1983H133.435V43.3045H132.57V36.0498H139.759V36.9391H133.435V40.3558H138.894V41.1983ZM208 38.3901H205.179V41.5728C205.179 41.9472 205.27 42.228 205.498 42.4152C205.725 42.6493 205.998 42.7429 206.362 42.7429C206.635 42.7429 206.999 42.6493 207.591 42.4152L207.773 43.3045C207.227 43.4917 206.726 43.6321 206.362 43.6321C205.725 43.6321 205.225 43.4449 204.861 43.0705C204.497 42.6961 204.315 42.1812 204.315 41.5728V38.3901H203.223V37.5008H204.315V36.1903H205.179V37.5008H208V38.3901ZM203.087 43.3045H202.222V40.2154C202.222 39.4666 201.949 38.9049 201.494 38.4837C200.994 38.1092 200.22 37.922 199.22 37.922C198.628 37.922 198.082 38.0156 197.582 38.2028C197.081 38.3433 196.717 38.6241 196.444 38.9517V43.3045H195.58V37.3604H196.444V38.0156C196.808 37.6412 197.218 37.4072 197.718 37.2668C198.219 37.1263 198.719 37.0327 199.22 37.0327C200.539 37.0327 201.494 37.3136 202.131 37.8284C202.768 38.3901 203.087 39.1857 203.087 40.2154V43.3045ZM191.031 43.6321C190.439 43.6321 189.893 43.5385 189.438 43.3981C188.938 43.2109 188.528 42.9769 188.164 42.6961C187.846 42.4152 187.573 42.0876 187.346 41.6664C187.164 41.2451 187.073 40.8239 187.073 40.309C187.073 39.841 187.164 39.4198 187.391 38.9985C187.573 38.5773 187.846 38.2496 188.164 37.9688C188.528 37.688 188.938 37.454 189.438 37.2668C189.939 37.1263 190.439 37.0327 191.031 37.0327C191.622 37.0327 192.168 37.1263 192.668 37.2668C193.169 37.454 193.578 37.688 193.897 37.9688C194.261 38.2496 194.534 38.6241 194.716 38.9985C194.898 39.4198 194.989 39.841 194.989 40.309V40.6835H187.983C188.028 41.0111 188.119 41.2919 188.301 41.5259C188.483 41.76 188.71 41.994 188.938 42.1812C189.211 42.3684 189.529 42.5088 189.893 42.6024C190.257 42.6961 190.621 42.7429 191.031 42.7429C191.668 42.7429 192.213 42.6493 192.714 42.462C193.214 42.3216 193.624 41.994 193.988 41.5728L194.716 41.994C194.261 42.5556 193.715 42.9769 193.123 43.2577C192.532 43.4917 191.804 43.6321 191.031 43.6321ZM194.079 39.9346C194.033 39.6538 193.897 39.3729 193.76 39.0921C193.578 38.8581 193.396 38.6709 193.123 38.4837C192.85 38.2964 192.532 38.156 192.168 38.0624C191.85 37.9688 191.44 37.922 191.031 37.922C190.621 37.922 190.257 37.9688 189.893 38.0624C189.529 38.156 189.256 38.2964 188.983 38.4837C188.71 38.6709 188.483 38.8581 188.301 39.0921C188.164 39.3729 188.028 39.6538 187.983 39.9346H194.079ZM183.615 43.3045V37.3604H184.479V37.7348C184.752 37.3604 185.162 37.1263 185.708 37.0795C185.844 37.0795 185.981 37.0795 186.072 37.1263C186.208 37.1263 186.299 37.1731 186.39 37.1731C186.527 37.2199 186.618 37.2668 186.754 37.3136C186.845 37.3604 186.982 37.4072 187.118 37.454L186.891 38.2964C186.754 38.2496 186.618 38.2028 186.527 38.156C186.436 38.1092 186.345 38.1092 186.254 38.0624C186.163 38.0624 186.072 38.0156 185.981 38.0156C185.89 38.0156 185.799 38.0156 185.708 38.0156C184.889 38.0156 184.479 38.4369 184.479 39.3729V43.3045H183.615ZM178.884 43.6321C178.292 43.6321 177.792 43.5385 177.291 43.3981C176.791 43.2109 176.381 42.9769 176.018 42.6961C175.699 42.4152 175.426 42.0876 175.244 41.6664C175.017 41.2451 174.926 40.8239 174.926 40.309C174.926 39.841 175.062 39.4198 175.244 38.9985C175.426 38.5773 175.699 38.2496 176.063 37.9688C176.381 37.688 176.791 37.454 177.291 37.2668C177.792 37.1263 178.292 37.0327 178.884 37.0327C179.475 37.0327 180.021 37.1263 180.521 37.2668C181.022 37.454 181.431 37.688 181.795 37.9688C182.114 38.2496 182.387 38.6241 182.569 38.9985C182.751 39.4198 182.887 39.841 182.887 40.309V40.6835H175.881C175.881 41.0111 176.018 41.2919 176.154 41.5259C176.336 41.76 176.563 41.994 176.836 42.1812C177.109 42.3684 177.382 42.5088 177.746 42.6024C178.11 42.6961 178.474 42.7429 178.884 42.7429C179.521 42.7429 180.066 42.6493 180.567 42.462C181.067 42.3216 181.477 41.994 181.841 41.5728L182.614 41.994C182.114 42.5556 181.613 42.9769 180.976 43.2577C180.385 43.4917 179.657 43.6321 178.884 43.6321ZM181.932 39.9346C181.886 39.6538 181.795 39.3729 181.613 39.0921C181.431 38.8581 181.249 38.6709 180.976 38.4837C180.703 38.2964 180.385 38.156 180.066 38.0624C179.703 37.9688 179.293 37.922 178.884 37.922C178.474 37.922 178.11 37.9688 177.746 38.0624C177.428 38.156 177.109 38.2964 176.836 38.4837C176.563 38.6709 176.336 38.8581 176.199 39.0921C176.018 39.3729 175.927 39.6538 175.881 39.9346H181.932ZM171.423 43.3045V39.3729H170.285H169.967H167.692V43.3045H166.828V39.3729H165.372V38.5305H166.828V37.922C166.828 37.3136 167.01 36.7987 167.374 36.4243C167.738 36.0498 168.238 35.8626 168.875 35.8626C169.057 35.8626 169.284 35.9094 169.512 35.9562C169.739 36.003 170.012 36.0498 170.285 36.1903L170.103 37.0327C169.557 36.8455 169.148 36.7519 168.875 36.7519C168.511 36.7519 168.192 36.8455 168.011 37.0795C167.783 37.2668 167.692 37.5476 167.692 37.922V38.5305H169.967H170.285H171.423V37.922C171.423 37.3136 171.605 36.7987 171.969 36.4243C172.332 36.0498 172.833 35.8626 173.515 35.8626C173.697 35.8626 173.879 35.9094 174.107 35.9562C174.334 36.003 174.607 36.0498 174.926 36.1903L174.698 37.0327C174.152 36.8455 173.743 36.7519 173.515 36.7519C173.106 36.7519 172.833 36.8455 172.605 37.0795C172.378 37.2668 172.287 37.5476 172.287 37.922V38.5305H174.926V39.3729H172.287V43.3045H171.423ZM165.008 43.3045H164.143V37.3604H165.008V43.3045ZM164.052 36.1903C164.052 36.0498 164.098 35.9094 164.189 35.769C164.28 35.6754 164.416 35.6286 164.598 35.6286C164.735 35.6286 164.871 35.6754 165.008 35.769C165.099 35.9094 165.144 36.0498 165.144 36.1903C165.144 36.3775 165.099 36.4711 165.008 36.6115C164.871 36.7051 164.735 36.7519 164.598 36.7519C164.416 36.7519 164.28 36.7051 164.189 36.6115C164.098 36.4711 164.052 36.3775 164.052 36.1903ZM159.458 43.6321C158.912 43.6321 158.411 43.5385 157.956 43.3981C157.501 43.2109 157.092 42.9769 156.773 42.6961C156.455 42.4152 156.182 42.0876 156 41.6664C155.818 41.2451 155.727 40.8239 155.727 40.309C155.727 39.841 155.818 39.3729 156 38.9517C156.182 38.5773 156.455 38.2028 156.773 37.922C157.092 37.6412 157.501 37.4072 157.956 37.2668C158.411 37.1263 158.912 37.0327 159.458 37.0327C159.731 37.0327 160.004 37.0327 160.322 37.0795C160.595 37.1263 160.868 37.2199 161.095 37.3136C161.368 37.3604 161.596 37.5008 161.823 37.5944C162.005 37.7348 162.187 37.8752 162.324 38.0624V36.0498H163.188V43.3045H162.324V42.6024C161.96 42.9301 161.55 43.1641 161.095 43.3513C160.595 43.5385 160.049 43.6321 159.458 43.6321ZM159.685 42.7429C160.276 42.7429 160.822 42.6493 161.232 42.462C161.687 42.2748 162.051 42.0408 162.324 41.6664V38.9985C162.051 38.6241 161.687 38.3901 161.232 38.2028C160.777 38.0156 160.276 37.922 159.685 37.922C159.23 37.922 158.775 37.9688 158.411 38.0624C158.047 38.2028 157.683 38.3433 157.41 38.5773C157.137 38.8113 156.955 39.0453 156.773 39.3261C156.637 39.6538 156.591 39.9814 156.591 40.309C156.591 40.6835 156.637 41.0111 156.773 41.2919C156.955 41.6196 157.137 41.8536 157.41 42.0876C157.683 42.2748 158.047 42.462 158.411 42.5556C158.775 42.6961 159.23 42.7429 159.685 42.7429ZM143.398 37.5008L146.81 41.8536L149.995 37.3604H151.041L145.764 44.8959L145.036 44.381L146.31 42.5556C145.991 42.1812 145.627 41.76 145.263 41.2919C144.945 40.8707 144.581 40.4026 144.171 39.9346C143.808 39.4666 143.444 39.0453 143.08 38.5773C142.761 38.156 142.579 37.922 142.261 37.5008H143.398ZM141.669 36.0498V41.76C141.669 41.8536 141.669 41.9472 141.715 42.0408C141.715 42.1344 141.76 42.228 141.806 42.3216C141.851 42.4152 141.942 42.462 142.033 42.5088C142.124 42.6024 142.261 42.6024 142.397 42.6493L142.352 43.4449C141.806 43.3981 141.442 43.2109 141.169 42.9301C140.941 42.6024 140.805 42.228 140.805 41.76V36.0498H141.669Z" fill="#ACB7C5"/>
<path d="M128.521 28.7952H125.382V17.5153C125.382 14.8007 124.518 12.7413 122.744 11.3372C120.969 9.88622 118.24 9.18416 114.555 9.18416C112.416 9.18416 110.415 9.51179 108.595 10.167C106.821 10.8223 105.41 11.8052 104.409 13.0221V28.7952H101.316V7.12477H104.409V9.51179C105.638 8.24807 107.185 7.35879 109.004 6.79714C110.824 6.28229 112.689 6.00146 114.555 6.00146C119.241 6.00146 122.744 6.98436 125.064 8.95014C127.384 10.9159 128.521 13.771 128.521 17.5153V28.7952Z" fill="#294A7A"/>
<path d="M144.308 29.9653C140.987 29.9653 138.166 29.544 135.755 28.7952C133.389 28.0463 131.433 27.0166 129.841 25.7061L131.524 23.085C132.98 24.2551 134.709 25.1444 136.801 25.7997C138.94 26.455 141.396 26.7826 144.308 26.7826C146.219 26.7826 147.902 26.6422 149.358 26.4081C150.768 26.1741 151.951 25.8465 152.906 25.4253C153.816 25.0508 154.544 24.5828 154.999 24.0679C155.454 23.5063 155.682 22.9446 155.682 22.3362C155.682 21.7745 155.454 21.3065 155.045 20.8852C154.681 20.464 154.044 20.1364 153.134 19.8555C152.224 19.5747 151.087 19.3407 149.676 19.2003C148.22 19.0599 146.492 18.9195 144.444 18.8727C142.807 18.779 141.26 18.6854 139.759 18.4982C138.303 18.3578 136.983 18.077 135.801 17.6557C134.663 17.2345 133.708 16.6728 133.025 15.9708C132.343 15.2219 131.979 14.2858 131.979 13.1625C131.979 12.0392 132.297 11.0563 132.889 10.2139C133.526 9.32457 134.39 8.5757 135.528 7.92044C136.619 7.31199 137.984 6.84394 139.577 6.51631C141.123 6.14188 142.898 6.00146 144.854 6.00146C146.037 6.00146 147.265 6.04827 148.448 6.18868C149.676 6.3759 150.859 6.56312 151.997 6.84394C153.088 7.12477 154.135 7.4524 155.136 7.87364C156.137 8.29488 156.955 8.80972 157.683 9.37138L155.909 11.9924C155.318 11.5244 154.59 11.1031 153.771 10.7755C152.906 10.4479 151.997 10.1202 151.041 9.88622C150.086 9.6522 149.039 9.46498 147.993 9.37138C146.947 9.23096 145.9 9.18416 144.854 9.18416C143.353 9.18416 142.033 9.27777 140.805 9.46498C139.622 9.6522 138.576 9.93303 137.757 10.2607C136.892 10.6351 136.255 11.0563 135.801 11.5244C135.346 12.0392 135.118 12.5541 135.118 13.1625C135.118 13.6774 135.391 14.0518 135.892 14.3326C136.437 14.6603 137.12 14.8943 138.03 15.0815C138.894 15.2687 139.895 15.4091 141.032 15.5027C142.124 15.5963 143.307 15.6432 144.535 15.69C147.22 15.7836 149.449 15.9708 151.269 16.2516C153.088 16.5792 154.59 17.0005 155.682 17.5153C156.819 18.0302 157.592 18.6854 158.047 19.4811C158.548 20.2768 158.775 21.1661 158.775 22.2426C158.775 23.4127 158.457 24.4892 157.774 25.4253C157.092 26.3613 156.137 27.157 154.908 27.8591C153.634 28.5143 152.133 29.0292 150.359 29.4036C148.539 29.7781 146.537 29.9653 144.308 29.9653Z" fill="#294A7A"/>
<path d="M174.835 29.9653C172.696 29.9653 170.74 29.6376 168.966 29.076C167.192 28.5143 165.69 27.6719 164.416 26.6422C163.143 25.6125 162.187 24.302 161.459 22.851C160.777 21.3533 160.458 19.7151 160.458 17.9366C160.458 16.2048 160.777 14.6135 161.505 13.1625C162.187 11.6648 163.188 10.4011 164.462 9.37138C165.69 8.29488 167.237 7.4524 169.011 6.89075C170.74 6.28229 172.696 6.00146 174.835 6.00146C176.973 6.00146 178.975 6.28229 180.749 6.89075C182.523 7.4992 184.024 8.34168 185.298 9.37138C186.572 10.4479 187.528 11.7116 188.255 13.1625C188.938 14.6135 189.256 16.2048 189.256 17.9366V19.2939H163.78C163.916 20.3704 164.28 21.4001 164.917 22.3362C165.508 23.2255 166.282 24.0211 167.283 24.6764C168.238 25.3316 169.375 25.8465 170.649 26.2209C171.968 26.5954 173.333 26.7826 174.835 26.7826C177.155 26.7826 179.157 26.455 180.931 25.7997C182.705 25.1912 184.206 24.0679 185.526 22.5702L188.301 24.0679C186.618 26.1273 184.661 27.6719 182.432 28.5611C180.203 29.4972 177.655 29.9653 174.835 29.9653ZM185.89 16.5792C185.708 15.4559 185.344 14.473 184.707 13.537C184.115 12.6477 183.342 11.852 182.387 11.1967C181.431 10.5883 180.294 10.0734 179.02 9.69901C177.746 9.37138 176.336 9.18416 174.835 9.18416C173.333 9.18416 171.968 9.37138 170.695 9.69901C169.421 10.0734 168.283 10.5883 167.328 11.1967C166.327 11.852 165.554 12.6477 164.917 13.537C164.325 14.473 163.961 15.4559 163.78 16.5792H185.89Z" fill="#294A7A"/>
<path d="M13.0114 28.7016C10.7367 28.7016 8.59844 28.2803 6.55119 27.4378C4.54944 26.6422 2.68417 25.4253 1.00089 23.7871L3.18461 21.4937C4.54944 22.8042 6.09625 23.7871 7.73404 24.4892C9.41733 25.1912 11.1461 25.5189 13.0114 25.5189C16.8784 25.5189 19.8355 24.6296 21.8373 22.8042C23.8845 21.0257 24.8854 18.4046 24.8854 14.9879V1.55505H28.0245V14.9879C28.0245 15.8772 27.9335 16.7665 27.797 17.7962C27.6606 18.8259 27.3876 19.8087 27.0236 20.8384C26.6142 21.8213 26.0683 22.8042 25.3858 23.7871C24.7034 24.7232 23.7935 25.5657 22.7017 26.2677C21.5643 27.0166 20.245 27.5783 18.6527 28.0463C17.0604 28.4675 15.1951 28.7016 13.0114 28.7016Z" fill="#294A7A"/>
<path d="M44.8119 28.7484C42.6282 28.7484 40.6719 28.4675 38.8976 27.8591C37.1688 27.2974 35.622 26.5018 34.3482 25.4253C33.1199 24.3956 32.119 23.1319 31.4366 21.6341C30.7542 20.1364 30.3902 18.545 30.3902 16.7665C30.3902 14.9879 30.7542 13.3966 31.4366 11.9456C32.1645 10.4479 33.1199 9.18417 34.3937 8.15447C35.6675 7.07797 37.1688 6.2823 38.9431 5.67384C40.7174 5.06539 42.6737 4.78456 44.8119 4.78456C46.9501 4.78456 48.9064 5.06539 50.6807 5.67384C52.4549 6.2823 54.0017 7.12478 55.2756 8.20128C56.5494 9.23097 57.5048 10.4947 58.1872 11.9456C58.8696 13.3966 59.2336 14.9879 59.2336 16.7665V18.077H33.7568C33.8933 19.2003 34.2572 20.1832 34.8486 21.1193C35.4856 22.0554 36.259 22.8042 37.2143 23.5063C38.2152 24.1616 39.3526 24.6764 40.6264 25.004C41.9003 25.3785 43.3106 25.5657 44.8119 25.5657C47.0866 25.5657 49.1339 25.2381 50.9081 24.5828C52.6369 23.9743 54.1837 22.8978 55.4576 21.3533L58.2327 22.851C56.5494 24.9572 54.5932 26.455 52.3639 27.3442C50.1802 28.2803 47.6325 28.7484 44.8119 28.7484ZM55.8215 15.3623C55.6395 14.2858 55.2756 13.2561 54.6842 12.3669C54.0927 11.4308 53.3193 10.6819 52.3639 10.0266C51.4086 9.37139 50.2712 8.85654 48.9974 8.52891C47.678 8.15447 46.3132 7.96726 44.8119 7.96726C43.3106 7.96726 41.9003 8.15447 40.6264 8.52891C39.3526 8.85654 38.2152 9.37139 37.2598 10.0266C36.3045 10.6819 35.4856 11.4308 34.8941 12.3669C34.3027 13.2561 33.8933 14.2858 33.7568 15.3623H55.8215Z" fill="#294A7A"/>
<path d="M76.021 9.65222H66.4672V21.2129C66.4672 22.617 66.8311 23.6467 67.6045 24.4424C68.378 25.1913 69.4698 25.5657 70.8346 25.5657C71.699 25.5657 73.1549 25.1913 75.1566 24.4424L75.93 27.6251C73.8373 28.3739 72.154 28.7484 70.8346 28.7484C68.5144 28.7484 66.6947 28.0931 65.3298 26.7358C64.0105 25.3785 63.3281 23.5531 63.3281 21.2129V9.65222H59.3246V6.46952H63.3281V1.69548H66.4672V6.46952H74.8381L76.021 9.65222Z" fill="#294A7A"/>
<path d="M206.044 10.8691H196.49V22.4298C196.49 23.7871 196.899 24.8636 197.673 25.6125C198.446 26.3614 199.493 26.7826 200.857 26.7826C201.767 26.7826 203.223 26.4082 205.225 25.6593L205.998 28.842C203.906 29.5909 202.177 29.9653 200.857 29.9653C198.537 29.9653 196.717 29.2632 195.398 27.9527C194.033 26.5954 193.396 24.77 193.396 22.4298V10.8691H189.393V7.68643H193.396V2.86559H196.49V7.68643H204.861L206.044 10.8691Z" fill="#294A7A"/>
<path fill-rule="evenodd" clip-rule="evenodd" d="M81.4348 20.4172C81.4348 22.149 81.9808 23.5999 82.9816 24.6296C83.9825 25.6125 85.4383 26.2209 87.1216 26.2209C87.6675 26.2209 88.2135 26.2209 88.7594 26.2209C88.7594 27.1102 88.7594 28.0463 88.7594 28.9824C87.9405 28.9824 87.1671 28.9824 86.5302 28.9356C84.7559 28.842 83.2546 28.5612 81.7533 27.4847C80.4339 26.5486 79.5696 25.5657 78.8871 23.9743C78.5232 23.1319 78.2957 22.2426 78.2957 21.5405C78.2957 16.9069 78.2957 12.3201 78.2957 7.68643C78.2957 6.89075 78.4777 6.09508 78.7507 5.34621C79.4786 3.61445 80.7069 2.16352 82.2992 1.27423C83.6185 0.525365 84.6649 0.291343 86.1662 0.197735C86.9851 0.104126 87.895 0.104126 88.7594 0.104126C88.7594 1.04021 88.7594 1.92949 88.7594 2.86558C87.713 2.86558 87.0761 2.91239 86.1207 3.0996C85.1654 3.24002 84.3465 3.47404 83.7095 3.89528C83.3001 4.1293 82.9361 4.50373 82.6177 4.92497C82.2992 5.29941 82.0262 5.76745 81.7988 6.23549C81.6623 6.60993 81.5713 6.93756 81.5258 7.31199C81.4348 7.68643 81.4348 8.15447 81.4348 8.66932C81.4348 12.6009 81.4348 16.4856 81.4348 20.4172Z" fill="url(#paint0_linear)"/>
<path d="M96.084 20.4172V8.66932C96.084 8.15447 96.0385 7.68643 95.993 7.31199C95.902 6.93756 95.811 6.60993 95.6745 6.23549C95.4926 5.76745 95.2196 5.29941 94.9011 4.92497C94.5372 4.50373 94.1732 4.1293 93.7638 3.89528C93.1723 3.47404 92.308 3.24002 91.3981 3.0996C90.3972 2.91239 89.8058 2.86558 88.7594 2.86558V0.104126C89.6238 0.104126 90.4882 0.104126 91.3071 0.197735C92.8084 0.291343 93.9003 0.525365 95.1741 1.27423C96.8119 2.16352 98.0402 3.61445 98.7227 5.34621C99.0411 6.09508 99.2231 6.89075 99.2231 7.68643V21.5405C99.2231 22.2426 98.9501 23.1319 98.6317 23.9743C97.9493 25.5657 97.0849 26.5486 95.7655 27.4847C94.2642 28.5612 92.7174 28.842 90.9431 28.9356C90.3062 28.9824 89.5328 28.9824 88.7594 28.9824V26.2209H90.3517C92.0805 26.2209 93.4908 25.6125 94.4917 24.6296C95.4926 23.5999 96.084 22.149 96.084 20.4172Z" fill="#294A7A"/>
<path fill-rule="evenodd" clip-rule="evenodd" d="M84.9834 16.7665C85.3928 16.8133 85.7568 16.8133 86.2117 16.7665C87.0761 16.6261 88.8504 15.5964 89.6693 15.1751C90.4427 14.8007 91.4891 14.239 92.2625 13.8646C94.6282 12.6945 94.3097 11.4776 91.4891 12.8349C90.8976 13.1157 90.2607 13.4434 89.6238 13.771C89.3508 13.9114 88.8959 13.7242 88.6229 13.6306C88.077 13.4902 85.8933 12.8817 85.6203 12.8817L85.3473 13.3029L86.6667 14.5667C86.8032 14.7071 87.0306 14.8943 87.0761 14.9879C86.9396 15.1751 85.8478 15.69 85.6203 15.7836C85.2109 16.0176 84.5284 16.2984 84.1645 16.5793C84.2555 16.6261 84.4374 16.6729 84.5739 16.6729C69.7428 24.2552 50.4532 32.0247 32.8924 33.8032C23.4296 34.7393 17.3788 34.1309 10.2817 32.3991C2.4112 30.5269 0.136483 26.2677 0 26.5954C0.227472 26.2209 1.68329 31.8843 10.0542 35.3946C20.5634 39.7474 34.7122 37.7348 46.4497 34.4117C67.6046 28.3271 80.4794 19.8556 84.9834 16.7665Z" fill="url(#paint1_linear)"/>
<path fill-rule="evenodd" clip-rule="evenodd" d="M84.8014 15.5964C84.3919 15.5028 83.9825 15.3155 83.5731 15.1751L83.1636 15.69L83.937 16.392C84.301 16.2048 84.9834 15.8772 85.3473 15.69C85.3018 15.6432 85.3018 15.6432 85.3018 15.6432C85.1654 15.6432 84.9379 15.6432 84.8014 15.5964Z" fill="#294A7A"/>
</g>
<defs>
<linearGradient id="paint0_linear" x1="89.8062" y1="4.36836" x2="76.7116" y2="24.3752" gradientUnits="userSpaceOnUse">
<stop stop-color="#EFAE9F"/>
<stop offset="1" stop-color="#B58367"/>
</linearGradient>
<linearGradient id="paint1_linear" x1="86.1526" y1="52.6499" x2="7.12462" y2="0.636063" gradientUnits="userSpaceOnUse">
<stop stop-color="#EFAE9F"/>
<stop offset="1" stop-color="#B58367"/>
</linearGradient>
<clipPath id="clip0">
<rect width="208" height="45" fill="white"/>
</clipPath>
</defs>
</svg>
