<svg xmlns="http://www.w3.org/2000/svg" xmlns:xlink="http://www.w3.org/1999/xlink" viewBox="0 0 621.74 116.44"><defs><linearGradient id="linear-gradient" x1="1136.64" y1="-2354.34" x2="2254.02" y2="-2960.6" gradientTransform="matrix(0.03, 0, 0, -0.03, 204.99, -36.47)" gradientUnits="userSpaceOnUse"><stop offset="0" stop-color="#ecaea0"/><stop offset="1" stop-color="#b48266"/></linearGradient><linearGradient id="linear-gradient-2" x1="1643.68" y1="-2615.92" x2="2498.23" y2="-2615.92" xlink:href="#linear-gradient"/><linearGradient id="linear-gradient-3" x1="-7183.75" y1="-3609.02" x2="2035.02" y2="-4050.44" xlink:href="#linear-gradient"/></defs><title>JOS</title><g id="Layer_2" data-name="Layer 2"><g id="Layer_1-2" data-name="Layer 1"><g id="Layer_1-3" data-name="Layer_1"><polygon points="467.56 108.44 454.33 108.44 454.33 112.99 452.4 112.99 452.4 97.2 469.51 97.2 469.51 99.11 454.33 99.11 454.33 106.53 467.56 106.53 467.56 108.44" style="fill:#acb6c3"/><path id="_1" data-name="1" d="M472.87,97.2v12.41a3,3,0,0,0,.08.65,1.83,1.83,0,0,0,.26.59,1.48,1.48,0,0,0,.5.46,2.05,2.05,0,0,0,.77.25l-.09,1.76a3.71,3.71,0,0,1-2.6-1.15,3.77,3.77,0,0,1-.85-2.5V97.2Z" style="fill:#acb6c3"/><path id="_2" data-name="2" d="M476.17,100l8.13,9.84,7.07-9.84h2.41l-11.89,16.46-1.6-1.07,2.84-4-2.3-2.78-2.46-3-2.45-3L473.68,100Z" style="fill:#acb6c3"/><path id="_3" data-name="3" d="M512.73,113.68a10.48,10.48,0,0,1-3.39-.52,8,8,0,0,1-2.68-1.46,6.66,6.66,0,0,1-1.76-2.28,7.2,7.2,0,0,1,0-5.89,6.68,6.68,0,0,1,1.76-2.26,7.94,7.94,0,0,1,2.68-1.45,10.76,10.76,0,0,1,3.39-.51,11.61,11.61,0,0,1,1.85.14,10.28,10.28,0,0,1,1.8.42,9.19,9.19,0,0,1,1.59.69,4.42,4.42,0,0,1,1.18,1V97.2H521V113h-1.89v-1.47a8.62,8.62,0,0,1-2.81,1.6,10.81,10.81,0,0,1-3.61.56Zm.46-1.9a9.56,9.56,0,0,0,3.53-.6,5.76,5.76,0,0,0,2.43-1.74v-5.89a5.8,5.8,0,0,0-2.44-1.73,9.58,9.58,0,0,0-3.52-.61,10.26,10.26,0,0,0-2.86.38,6.9,6.9,0,0,0-2.21,1.08,5,5,0,0,0-1.42,1.68,4.65,4.65,0,0,0-.5,2.14,4.72,4.72,0,0,0,.5,2.17,4.92,4.92,0,0,0,1.42,1.67,7.1,7.1,0,0,0,2.21,1.07,10.26,10.26,0,0,0,2.86.38Z" style="fill:#acb6c3"/><path id="_4" data-name="4" d="M525.18,113h-1.93V100h1.93ZM523,97.46a1.27,1.27,0,0,1,.34-.89,1.2,1.2,0,0,1,.89-.36,1.25,1.25,0,0,1,1.26,1.25,1.19,1.19,0,0,1-.37.9,1.21,1.21,0,0,1-.89.36,1.2,1.2,0,0,1-.89-.36A1.25,1.25,0,0,1,523,97.46Z" style="fill:#acb6c3"/><path id="_5" data-name="5" d="M529.23,113v-8.54h-3.29v-1.91h3.29V101.3A4.44,4.44,0,0,1,530.47,98a4.64,4.64,0,0,1,3.4-1.21,7.42,7.42,0,0,1,1.39.15,12.2,12.2,0,0,1,1.78.51l-.48,1.85a9.68,9.68,0,0,0-2.69-.6,2.75,2.75,0,0,0-2,.69,2.53,2.53,0,0,0-.72,1.92v1.25H537v1.91h-5.88V113Z" style="fill:#acb6c3"/><path id="_6" data-name="6" d="M539.6,113v-8.54h-3.3v-1.91h3.3V101.3A4.43,4.43,0,0,1,540.83,98a4.66,4.66,0,0,1,3.41-1.21,7.51,7.51,0,0,1,1.39.15,12.2,12.2,0,0,1,1.78.51l-.48,1.85a9.76,9.76,0,0,0-2.69-.6,2.78,2.78,0,0,0-2,.69,2.57,2.57,0,0,0-.71,1.92v1.25h5.88v1.91h-5.88V113Z" style="fill:#acb6c3"/><path id="_7" data-name="7" d="M556.38,113.68a11.83,11.83,0,0,1-3.63-.52,8.42,8.42,0,0,1-2.81-1.46,6.56,6.56,0,0,1-1.81-2.28,6.67,6.67,0,0,1-.64-2.94,6.47,6.47,0,0,1,.65-2.88,6.91,6.91,0,0,1,1.82-2.28,8.64,8.64,0,0,1,2.81-1.48,11.49,11.49,0,0,1,3.61-.53,11.7,11.7,0,0,1,3.65.54,8.85,8.85,0,0,1,2.81,1.49,6.72,6.72,0,0,1,1.82,2.27,6.56,6.56,0,0,1,.64,2.87v.81H549.55a4.14,4.14,0,0,0,.7,1.82,5.21,5.21,0,0,0,1.46,1.42,7.24,7.24,0,0,0,2.09.92,9.7,9.7,0,0,0,2.58.32,11.49,11.49,0,0,0,3.77-.57,6.64,6.64,0,0,0,2.83-1.94l1.71.89a9,9,0,0,1-3.62,2.71,12.57,12.57,0,0,1-4.69.82Zm6.81-8a4.36,4.36,0,0,0-.7-1.81,5.1,5.1,0,0,0-1.44-1.41,7.37,7.37,0,0,0-2.09-.9,10.21,10.21,0,0,0-5.15,0,7.56,7.56,0,0,0-2.08.9,5,5,0,0,0-1.46,1.41,4.21,4.21,0,0,0-.72,1.81Z" style="fill:#acb6c3"/><path id="_8" data-name="8" d="M567,113V100H569v.91a3.3,3.3,0,0,1,2.71-1.43,4.62,4.62,0,0,1,.84,0,3.76,3.76,0,0,1,.74.16q.38.12.75.27l.82.33-.5,1.86-.81-.32a4.87,4.87,0,0,0-.65-.21l-.59-.12a4.12,4.12,0,0,0-.62,0c-1.79,0-2.69,1-2.69,3V113Z" style="fill:#acb6c3"/><path id="_9" data-name="9" d="M583.66,113.68a11.83,11.83,0,0,1-3.63-.52,8.42,8.42,0,0,1-2.81-1.46,6.56,6.56,0,0,1-1.81-2.28,6.67,6.67,0,0,1-.64-2.94,6.47,6.47,0,0,1,.65-2.88,6.91,6.91,0,0,1,1.82-2.28,8.64,8.64,0,0,1,2.81-1.48,11.49,11.49,0,0,1,3.61-.53,11.7,11.7,0,0,1,3.65.54,8.85,8.85,0,0,1,2.81,1.49,6.72,6.72,0,0,1,1.82,2.27,6.56,6.56,0,0,1,.64,2.87v.81H576.83a4.14,4.14,0,0,0,.7,1.82,5.21,5.21,0,0,0,1.46,1.42,7.24,7.24,0,0,0,2.09.92,9.7,9.7,0,0,0,2.58.32,11.39,11.39,0,0,0,3.76-.57,6.52,6.52,0,0,0,2.83-1.94l1.72.89a9,9,0,0,1-3.62,2.71,12.57,12.57,0,0,1-4.69.82Zm6.81-8a4.36,4.36,0,0,0-.7-1.81,5,5,0,0,0-1.45-1.41,7.18,7.18,0,0,0-2.08-.9,10.21,10.21,0,0,0-5.15,0,7.43,7.43,0,0,0-2.08.9,5,5,0,0,0-1.46,1.41,4.21,4.21,0,0,0-.72,1.81Z" style="fill:#acb6c3"/><path id="_10" data-name="10" d="M610.7,113h-1.93v-6.77a4.46,4.46,0,0,0-1.64-3.72,8.14,8.14,0,0,0-5-1.29,10.77,10.77,0,0,0-3.66.6,5.6,5.6,0,0,0-2.59,1.72V113H593.9V100h1.93l0,1.43a7,7,0,0,1,2.85-1.61,12.09,12.09,0,0,1,3.42-.49q4.35,0,6.48,1.76a6.29,6.29,0,0,1,2.14,5.15V113Z" style="fill:#acb6c3"/><path id="_11" data-name="11" d="M621.74,102.23h-6.29v6.94a2.5,2.5,0,0,0,.72,1.92,2.72,2.72,0,0,0,2,.69,9.23,9.23,0,0,0,2.69-.68l.48,1.91a10.21,10.21,0,0,1-3.17.67,4.64,4.64,0,0,1-3.38-1.2,4.41,4.41,0,0,1-1.24-3.31v-6.94h-2.47v-1.9h2.47V97.44h1.93v2.89h6.29v1.9Z" style="fill:#acb6c3"/><path d="M383,83.09h-9.32V50.43q0-11.72-7.93-18t-24.36-6.22a52.7,52.7,0,0,0-17.7,2.87,27.29,27.29,0,0,0-12.49,8.33V83.09h-9.32V20.29h9.32l-.09,6.91a33.67,33.67,0,0,1,13.78-7.75,57.89,57.89,0,0,1,16.5-2.4q21,0,31.28,8.53T383,50.43Z" style="fill:#2b4b7a"/><path id="_1-2" data-name="1" d="M430,86.44q-14.76,0-25.38-3.3a52.63,52.63,0,0,1-17.63-9l5-7.64a47.25,47.25,0,0,0,15.75,7.85A77.28,77.28,0,0,0,430,77.23a94.09,94.09,0,0,0,15.07-1,49,49,0,0,0,10.57-2.77,16.7,16.7,0,0,0,6.23-4,7.33,7.33,0,0,0,2-4.92,5.81,5.81,0,0,0-1.78-4.29,13.75,13.75,0,0,0-5.75-3A58.09,58.09,0,0,0,446,55.3q-6.39-.67-15.6-1-7.21-.31-13.87-1a52.62,52.62,0,0,1-11.82-2.46,20.71,20.71,0,0,1-8.27-4.92,11.13,11.13,0,0,1-3.09-8.16,14.39,14.39,0,0,1,2.72-8.53,22.32,22.32,0,0,1,7.75-6.54,44.13,44.13,0,0,1,12.09-4.19,77.51,77.51,0,0,1,15.75-1.46,93.66,93.66,0,0,1,10.78.62,89,89,0,0,1,10.46,1.87,63,63,0,0,1,9.42,3,31.42,31.42,0,0,1,7.54,4.22l-5.23,7.64a30.54,30.54,0,0,0-6.44-3.51,56.45,56.45,0,0,0-8.06-2.56A72.63,72.63,0,0,0,441,26.78a85.23,85.23,0,0,0-9.36-.52,79.66,79.66,0,0,0-12,.83,42.35,42.35,0,0,0-9.16,2.36,16.26,16.26,0,0,0-5.8,3.66,6.78,6.78,0,0,0-2.05,4.76A3.89,3.89,0,0,0,405,41.28a22,22,0,0,0,6.26,2.09,81,81,0,0,0,8.95,1.2c3.33.28,6.82.46,10.45.53a165.88,165.88,0,0,1,20.16,1.72A51.21,51.21,0,0,1,464,50.42a16,16,0,0,1,7.1,5.68,14.88,14.88,0,0,1,2.15,8.1,15.19,15.19,0,0,1-3,9.14,24,24,0,0,1-8.58,7,52.81,52.81,0,0,1-13.59,4.49A91.52,91.52,0,0,1,430,86.44Z" style="fill:#2b4b7a"/><path id="_2-2" data-name="2" d="M521.05,86.44a57.82,57.82,0,0,1-17.53-2.51A41.35,41.35,0,0,1,490,76.86a31.33,31.33,0,0,1-8.73-11,32.34,32.34,0,0,1-3.09-14.18,31,31,0,0,1,3.14-13.92,32.5,32.5,0,0,1,8.79-11,41.56,41.56,0,0,1,13.55-7.17,60.56,60.56,0,0,1,35,.05,42.21,42.21,0,0,1,13.61,7.22A32.21,32.21,0,0,1,561,37.82a31.21,31.21,0,0,1,3.09,13.87v3.87h-76a20,20,0,0,0,3.35,8.79,25.44,25.44,0,0,0,7.07,6.86,34.61,34.61,0,0,0,10.1,4.45,47.37,47.37,0,0,0,12.45,1.57,54.69,54.69,0,0,0,18.16-2.78,32,32,0,0,0,13.66-9.36l8.27,4.29a43.64,43.64,0,0,1-17.48,13.08,60.53,60.53,0,0,1-22.61,4Zm32.86-38.73a21.14,21.14,0,0,0-3.4-8.75,24.45,24.45,0,0,0-7-6.77,34.63,34.63,0,0,0-10-4.36,47,47,0,0,0-12.45-1.57,46.42,46.42,0,0,0-12.4,1.57,35.08,35.08,0,0,0-10,4.36A24.88,24.88,0,0,0,491.53,39a21,21,0,0,0-3.45,8.75Z" style="fill:#2b4b7a"/><path id="_3-2" data-name="3" d="M616,31.18H585.63V64.67q0,6,3.45,9.26t9.53,3.3q4,0,13-3.25l2.31,9.21q-9.42,3.25-15.28,3.25-10.36,0-16.33-5.81t-6-16V31.18H564.38V22h11.93V8h9.32V22H616v9.22Z" style="fill:#2b4b7a"/><path d="M38.78,82.85a51.25,51.25,0,0,1-19.2-3.61A53,53,0,0,1,3,68.61L9.48,62a44.67,44.67,0,0,0,13.6,8.64,42,42,0,0,0,15.7,3q17.28,0,26.33-7.85t9-22.61v-39h9.31v39a58.61,58.61,0,0,1-.62,8.06A39.29,39.29,0,0,1,80.49,60a36.79,36.79,0,0,1-4.81,8.53,29.83,29.83,0,0,1-8.06,7.28,44.66,44.66,0,0,1-12,5.07A64.12,64.12,0,0,1,38.78,82.85Z" style="fill:#2b4b7a"/><path id="_1-3" data-name="1" d="M133.5,83A57.51,57.51,0,0,1,116,80.44a41.28,41.28,0,0,1-13.55-7.06,31.45,31.45,0,0,1-8.74-11A32.35,32.35,0,0,1,90.59,48.2a31.18,31.18,0,0,1,3.14-13.92,32.6,32.6,0,0,1,8.79-11,41.31,41.31,0,0,1,13.56-7.16,60.34,60.34,0,0,1,35,.05,42.07,42.07,0,0,1,13.6,7.22,32.21,32.21,0,0,1,8.74,10.94,31.17,31.17,0,0,1,3.09,13.86v3.88h-76a20,20,0,0,0,3.35,8.79A25.41,25.41,0,0,0,111,67.72a34.35,34.35,0,0,0,10.1,4.45,47.06,47.06,0,0,0,12.45,1.57A54.7,54.7,0,0,0,151.66,71a32,32,0,0,0,13.66-9.37l8.27,4.29A43.69,43.69,0,0,1,156.11,79a60.49,60.49,0,0,1-22.61,4Zm32.87-38.72a21.46,21.46,0,0,0-3.4-8.76,24.62,24.62,0,0,0-7-6.77,35,35,0,0,0-10-4.36,47.09,47.09,0,0,0-12.46-1.57,46.47,46.47,0,0,0-12.4,1.57,35.9,35.9,0,0,0-10,4.36A25.11,25.11,0,0,0,104,35.47a20.87,20.87,0,0,0-3.46,8.76Z" style="fill:#2b4b7a"/><path id="_2-3" data-name="2" d="M228.43,27.69H198.08V61.18q0,6,3.45,9.27t9.53,3.29q4,0,13-3.24l2.3,9.21Q216.92,83,211.06,83q-10.37,0-16.33-5.81t-6-16V27.69H176.83V18.48h11.93V4.56h9.32V18.48h30.35v9.21Z" style="fill:#2b4b7a"/><path d="M287.72,58.85v-34a22.67,22.67,0,0,0-.28-3.94,14.92,14.92,0,0,0-.93-3.12,15.09,15.09,0,0,0-2.35-3.84A14.72,14.72,0,0,0,280.87,11a18.9,18.9,0,0,0-7.11-2.34A64.08,64.08,0,0,0,264.48,8V0c2.58,0,5.25,0,7.64.21a32.09,32.09,0,0,1,7.08,1.16,27.59,27.59,0,0,1,4.5,2,18.15,18.15,0,0,1,3.68,2.57l.3.21A6.24,6.24,0,0,1,289,7.21h0l1.3,1.44.07.1a24.7,24.7,0,0,1,3.87,6.41,18.16,18.16,0,0,1,1.44,6.78V62.1a19.07,19.07,0,0,1-1.75,7.05,21.58,21.58,0,0,1-4,6.28,1.14,1.14,0,0,0-.2.22s-.08.11-.33.41a12.93,12.93,0,0,1-1.61,1.45h0c-.9.72-2,1.53-2.37,1.81a21.85,21.85,0,0,1-4.69,2.48,25.73,25.73,0,0,1-5.33,1.41c-.9.13-2.43.24-4.32.31s-4.17.11-6.55.12v-8h6.17A17.33,17.33,0,0,0,283.06,71a16.6,16.6,0,0,0,4.66-12.13Z" style="fill:#2b4b7a"/><path d="M241.46,24.81V61.4h-7.92V21.94A18,18,0,0,1,235,15.16a25,25,0,0,1,3.86-6.41l.07-.1,1.28-1.42h0a6,6,0,0,1,1.31-1.12l.31-.21a17.88,17.88,0,0,1,3.68-2.57,27.59,27.59,0,0,1,4.5-2A32,32,0,0,1,257.07.21c2.36-.18,5-.22,7.54-.21V8a64.11,64.11,0,0,0-9.18.64A18.9,18.9,0,0,0,248.31,11,14.46,14.46,0,0,0,245,13.91a15.09,15.09,0,0,0-2.35,3.84,13.81,13.81,0,0,0-.93,3.12,22.58,22.58,0,0,0-.29,3.94Zm0,34.61A16.43,16.43,0,0,0,246.13,71a17.33,17.33,0,0,0,12.41,4.62h6.07v8c-2.35,0-4.61,0-6.45-.12s-3.43-.18-4.33-.31a25.81,25.81,0,0,1-5.32-1.41,21.62,21.62,0,0,1-4.69-2.48c-.4-.28-1.48-1.09-2.37-1.81h0a13.72,13.72,0,0,1-1.61-1.45l-.32-.41a1.14,1.14,0,0,0-.2-.22,21.38,21.38,0,0,1-4-6.28,18.88,18.88,0,0,1-1.75-7.05V59.42Z" style="fill:url(#linear-gradient)"/><g id="_1688321342240" data-name=" 1688321342240"><path d="M252,42l1,.22a23.05,23.05,0,0,0,3.46.33c2.13,0,6.8-1.85,9-2.56l5.85-1.93c6.2-2,6.92-5-.36-2.75-1.63.55-3.27,1.06-4.88,1.62-.74.25-1.79-.38-2.46-.65-1.28-.53-6.36-2.63-7.06-2.71l-.77.84,2.78,3.5a10.32,10.32,0,0,1,.9,1.13,24.68,24.68,0,0,1-3.8,1.41,22.08,22.08,0,0,0-3.82,1.43L252,42Z" style="fill:url(#linear-gradient-2)"/><path d="M254,40.31a16.8,16.8,0,0,1-1.82-.87c-.58-.3-1.23-.52-1.82-.85l-.72.56,1.88,2.18,2.33-.74.28-.1c0-.22,0-.17-.13-.18Z" style="fill:#2b4b7a"/></g><path d="M256.36,43.3c-5.58,2-52.25,19.75-127,46.43-37.65,11.73-68.1,18.72-97.22,11.61C6,91.21.61,72.64,0,73.69.39,72.81,11.94,86.12,35.51,91,86.08,102.85,200.07,59.52,256.36,43.3Z" style="fill:url(#linear-gradient-3)"/></g></g></g></svg>