<svg width="208" height="45" viewBox="0 0 208 45" fill="none" xmlns="http://www.w3.org/2000/svg">
<path fill-rule="evenodd" clip-rule="evenodd" d="M96.0831 20.4172V8.66932C96.0831 8.15447 96.0376 7.68643 95.9921 7.31199C95.9012 6.93756 95.8102 6.60993 95.6737 6.23549C95.4917 5.76745 95.2187 5.29941 94.9003 4.92497C94.5363 4.50373 94.1724 4.1293 93.7629 3.89528C93.1715 3.47404 92.3071 3.24002 91.3972 3.0996C90.3963 2.91239 89.8049 2.86558 88.7585 2.86558V0.104126C89.6229 0.104126 90.4873 0.104126 91.3062 0.197735C92.8075 0.291343 93.8994 0.525365 95.1732 1.27423C96.811 2.16352 98.0394 3.61445 98.7218 5.34621C99.0403 6.09508 99.2222 6.89075 99.2222 7.68643V21.5405C99.2222 22.2426 98.9493 23.1319 98.6308 23.9743C97.9484 25.5657 97.084 26.5486 95.7647 27.4847C94.2634 28.5612 92.7166 28.842 90.9423 28.9356C90.3054 28.9824 89.532 28.9824 88.7585 28.9824V26.2209H90.3508C92.0796 26.2209 93.49 25.6125 94.4908 24.6296C95.4917 23.5999 96.0831 22.149 96.0831 20.4172ZM13.0105 28.7016C10.7358 28.7016 8.59755 28.2803 6.55031 27.4378C4.54856 26.6422 2.68329 25.4253 1 23.7871L3.18373 21.4937C4.54856 22.8042 6.09536 23.7871 7.73316 24.4892C9.41645 25.1912 11.1452 25.5189 13.0105 25.5189C16.8775 25.5189 19.8346 24.6296 21.8364 22.8042C23.8836 21.0257 24.8845 18.4046 24.8845 14.9879V1.55505H28.0236V14.9879C28.0236 15.8772 27.9326 16.7665 27.7962 17.7962C27.6597 18.8259 27.3867 19.8087 27.0227 20.8384C26.6133 21.8213 26.0674 22.8042 25.385 23.7871C24.7025 24.7232 23.7927 25.5657 22.7008 26.2677C21.5634 27.0166 20.2441 27.5783 18.6518 28.0463C17.0595 28.4675 15.1942 28.7016 13.0105 28.7016ZM128.521 28.7952H125.381V17.5153C125.381 14.8007 124.517 12.7413 122.743 11.3372C120.968 9.88622 118.239 9.18416 114.554 9.18416C112.416 9.18416 110.414 9.51179 108.594 10.167C106.82 10.8223 105.409 11.8052 104.409 13.0221V28.7952H101.315V7.12477H104.409V9.51179C105.637 8.24807 107.184 7.35879 109.003 6.79714C110.823 6.28229 112.689 6.00146 114.554 6.00146C119.24 6.00146 122.743 6.98436 125.063 8.95014C127.383 10.9159 128.521 13.771 128.521 17.5153V28.7952ZM144.307 29.9653C140.986 29.9653 138.165 29.544 135.754 28.7952C133.389 28.0463 131.432 27.0166 129.84 25.7061L131.523 23.085C132.979 24.2551 134.708 25.1444 136.801 25.7997C138.939 26.455 141.396 26.7826 144.307 26.7826C146.218 26.7826 147.901 26.6422 149.357 26.4081C150.767 26.1741 151.95 25.8465 152.906 25.4253C153.815 25.0508 154.543 24.5828 154.998 24.0679C155.453 23.5063 155.681 22.9446 155.681 22.3362C155.681 21.7745 155.453 21.3065 155.044 20.8852C154.68 20.464 154.043 20.1364 153.133 19.8555C152.223 19.5747 151.086 19.3407 149.676 19.2003C148.22 19.0599 146.491 18.9195 144.444 18.8727C142.806 18.779 141.259 18.6854 139.758 18.4982C138.302 18.3578 136.983 18.077 135.8 17.6557C134.662 17.2345 133.707 16.6728 133.025 15.9708C132.342 15.2219 131.978 14.2858 131.978 13.1625C131.978 12.0392 132.297 11.0563 132.888 10.2139C133.525 9.32457 134.389 8.5757 135.527 7.92044C136.619 7.31199 137.983 6.84394 139.576 6.51631C141.123 6.14188 142.897 6.00146 144.853 6.00146C146.036 6.00146 147.264 6.04827 148.447 6.18868C149.676 6.3759 150.858 6.56312 151.996 6.84394C153.088 7.12477 154.134 7.4524 155.135 7.87364C156.136 8.29488 156.955 8.80972 157.683 9.37138L155.908 11.9924C155.317 11.5244 154.589 11.1031 153.77 10.7755C152.906 10.4479 151.996 10.1202 151.04 9.88622C150.085 9.6522 149.039 9.46498 147.992 9.37138C146.946 9.23096 145.899 9.18416 144.853 9.18416C143.352 9.18416 142.032 9.27777 140.804 9.46498C139.621 9.6522 138.575 9.93303 137.756 10.2607C136.892 10.6351 136.255 11.0563 135.8 11.5244C135.345 12.0392 135.117 12.5541 135.117 13.1625C135.117 13.6774 135.39 14.0518 135.891 14.3326C136.437 14.6603 137.119 14.8943 138.029 15.0815C138.893 15.2687 139.894 15.4091 141.032 15.5027C142.123 15.5963 143.306 15.6432 144.535 15.69C147.219 15.7836 149.448 15.9708 151.268 16.2516C153.088 16.5792 154.589 17.0005 155.681 17.5153C156.818 18.0302 157.592 18.6854 158.046 19.4811C158.547 20.2768 158.774 21.1661 158.774 22.2426C158.774 23.4127 158.456 24.4892 157.774 25.4253C157.091 26.3613 156.136 27.157 154.907 27.8591C153.634 28.5143 152.132 29.0292 150.358 29.4036C148.538 29.7781 146.536 29.9653 144.307 29.9653ZM168.965 29.076C170.739 29.6376 172.696 29.9653 174.834 29.9653C177.654 29.9653 180.202 29.4972 182.431 28.5611C184.661 27.6719 186.617 26.1273 188.3 24.0679L185.525 22.5702C184.206 24.0679 182.704 25.1912 180.93 25.7997C179.156 26.455 177.154 26.7826 174.834 26.7826C173.333 26.7826 171.968 26.5954 170.648 26.2209C169.375 25.8465 168.237 25.3316 167.282 24.6764C166.281 24.0211 165.508 23.2255 164.916 22.3362C164.279 21.4001 163.915 20.3704 163.779 19.2939H189.256V17.9366C189.256 16.2048 188.937 14.6135 188.255 13.1625C187.527 11.7116 186.571 10.4479 185.298 9.37138C184.024 8.34168 182.522 7.4992 180.748 6.89075C178.974 6.28229 176.972 6.00146 174.834 6.00146C172.696 6.00146 170.739 6.28229 169.011 6.89075C167.236 7.4524 165.689 8.29488 164.461 9.37138C163.187 10.4011 162.186 11.6648 161.504 13.1625C160.776 14.6135 160.458 16.2048 160.458 17.9366C160.458 19.7151 160.776 21.3533 161.459 22.851C162.186 24.302 163.142 25.6125 164.416 26.6422C165.689 27.6719 167.191 28.5143 168.965 29.076ZM184.706 13.537C185.343 14.473 185.707 15.4559 185.889 16.5792H163.779C163.961 15.4559 164.325 14.473 164.916 13.537C165.553 12.6477 166.326 11.852 167.327 11.1967C168.283 10.5883 169.42 10.0734 170.694 9.69901C171.968 9.37138 173.333 9.18416 174.834 9.18416C176.335 9.18416 177.745 9.37138 179.019 9.69901C180.293 10.0734 181.431 10.5883 182.386 11.1967C183.341 11.852 184.115 12.6477 184.706 13.537ZM38.8968 27.8591C40.6711 28.4675 42.6274 28.7484 44.8111 28.7484C47.6317 28.7484 50.1794 28.2803 52.3632 27.3442C54.5924 26.455 56.5486 24.9572 58.2319 22.851L55.4568 21.3533C54.1829 22.8978 52.6361 23.9743 50.9073 24.5828C49.1331 25.2381 47.0858 25.5657 44.8111 25.5657C43.3098 25.5657 41.8995 25.3785 40.6256 25.004C39.3518 24.6764 38.2144 24.1616 37.2136 23.5063C36.2582 22.8042 35.4848 22.0554 34.8478 21.1193C34.2564 20.1832 33.8925 19.2003 33.756 18.077H59.2328V16.7665C59.2328 14.9879 58.8688 13.3966 58.1864 11.9456C57.504 10.4947 56.5486 9.23097 55.2748 8.20128C54.0009 7.12478 52.4541 6.2823 50.6799 5.67384C48.9056 5.06539 46.9493 4.78456 44.8111 4.78456C42.6729 4.78456 40.7166 5.06539 38.9423 5.67384C37.1681 6.2823 35.6667 7.07797 34.3929 8.15447C33.1191 9.18417 32.1637 10.4479 31.4358 11.9456C30.7534 13.3966 30.3894 14.9879 30.3894 16.7665C30.3894 18.545 30.7534 20.1364 31.4358 21.6341C32.1182 23.1319 33.1191 24.3956 34.3474 25.4253C35.6213 26.5018 37.1681 27.2974 38.8968 27.8591ZM54.6834 12.3669C55.2748 13.2561 55.6387 14.2858 55.8207 15.3623H33.756C33.8925 14.2858 34.3019 13.2561 34.8933 12.3669C35.4848 11.4308 36.3037 10.6819 37.259 10.0266C38.2144 9.37138 39.3518 8.85654 40.6256 8.52891C41.8995 8.15447 43.3098 7.96726 44.8111 7.96726C46.3124 7.96726 47.6772 8.15447 48.9966 8.52891C50.2704 8.85654 51.4078 9.37138 52.3632 10.0266C53.3185 10.6819 54.0919 11.4308 54.6834 12.3669ZM76.0201 9.65222H66.4663V21.2129C66.4663 22.617 66.8303 23.6467 67.6037 24.4424C68.3771 25.1913 69.469 25.5657 70.8338 25.5657C71.6982 25.5657 73.154 25.1913 75.1557 24.4424L75.9292 27.6251C73.8364 28.3739 72.1531 28.7484 70.8338 28.7484C68.5136 28.7484 66.6938 28.0931 65.329 26.7358C64.0096 25.3785 63.3272 23.5531 63.3272 21.2129V9.65222H59.3237V6.46952H63.3272V1.69548H66.4663V6.46952H74.8373L76.0201 9.65222ZM196.489 10.8691H206.043L204.86 7.68643H196.489V2.86559H193.395V7.68643H189.392V10.8691H193.395V22.4298C193.395 24.77 194.032 26.5954 195.397 27.9527C196.717 29.2632 198.536 29.9653 200.857 29.9653C202.176 29.9653 203.905 29.5909 205.997 28.842L205.224 25.6593C203.222 26.4082 201.766 26.7826 200.857 26.7826C199.492 26.7826 198.445 26.3614 197.672 25.6125C196.899 24.8636 196.489 23.7871 196.489 22.4298V10.8691ZM83.9816 15.3259C84.2546 15.4299 84.5275 15.534 84.8005 15.5964C84.937 15.6432 85.1645 15.6432 85.3009 15.6432L85.3464 15.69C85.1644 15.7836 84.9028 15.9123 84.6412 16.041C84.3796 16.1697 84.1181 16.2984 83.9361 16.392L83.1627 15.69L83.5722 15.1751C83.7086 15.2219 83.8451 15.2739 83.9816 15.3259Z" fill="url(#paint0_linear)"/>
<path d="M138.894 41.1983H133.435V43.3045H132.57V36.0498H139.758V36.9391H133.435V40.3558H138.894V41.1983ZM208 38.3901H205.179V41.5728C205.179 41.9472 205.27 42.228 205.498 42.4152C205.725 42.6493 205.998 42.7429 206.362 42.7429C206.635 42.7429 206.999 42.6493 207.59 42.4152L207.772 43.3045C207.226 43.4917 206.726 43.6321 206.362 43.6321C205.725 43.6321 205.225 43.4449 204.861 43.0705C204.497 42.6961 204.315 42.1812 204.315 41.5728V38.3901H203.223V37.5008H204.315V36.1903H205.179V37.5008H208V38.3901ZM203.086 43.3045H202.222V40.2154C202.222 39.4666 201.949 38.9049 201.494 38.4837C200.994 38.1092 200.22 37.922 199.219 37.922C198.628 37.922 198.082 38.0156 197.582 38.2028C197.081 38.3433 196.717 38.6241 196.444 38.9517V43.3045H195.58V37.3604H196.444V38.0156C196.808 37.6412 197.218 37.4072 197.718 37.2668C198.219 37.1263 198.719 37.0327 199.219 37.0327C200.539 37.0327 201.494 37.3136 202.131 37.8284C202.768 38.3901 203.086 39.1857 203.086 40.2154V43.3045ZM191.031 43.6321C190.439 43.6321 189.893 43.5385 189.438 43.3981C188.938 43.2109 188.528 42.9769 188.164 42.6961C187.846 42.4152 187.573 42.0876 187.345 41.6664C187.163 41.2451 187.072 40.8239 187.072 40.309C187.072 39.841 187.163 39.4198 187.391 38.9985C187.573 38.5773 187.846 38.2496 188.164 37.9688C188.528 37.688 188.938 37.454 189.438 37.2668C189.939 37.1263 190.439 37.0327 191.031 37.0327C191.622 37.0327 192.168 37.1263 192.668 37.2668C193.169 37.454 193.578 37.688 193.897 37.9688C194.261 38.2496 194.534 38.6241 194.716 38.9985C194.898 39.4198 194.989 39.841 194.989 40.309V40.6835H187.982C188.028 41.0111 188.119 41.2919 188.301 41.5259C188.483 41.76 188.71 41.994 188.938 42.1812C189.211 42.3684 189.529 42.5088 189.893 42.6024C190.257 42.6961 190.621 42.7429 191.031 42.7429C191.667 42.7429 192.213 42.6493 192.714 42.462C193.214 42.3216 193.624 41.994 193.988 41.5728L194.716 41.994C194.261 42.5556 193.715 42.9769 193.123 43.2577C192.532 43.4917 191.804 43.6321 191.031 43.6321ZM194.079 39.9346C194.033 39.6538 193.897 39.3729 193.76 39.0921C193.578 38.8581 193.396 38.6709 193.123 38.4837C192.85 38.2964 192.532 38.156 192.168 38.0624C191.849 37.9688 191.44 37.922 191.031 37.922C190.621 37.922 190.257 37.9688 189.893 38.0624C189.529 38.156 189.256 38.2964 188.983 38.4837C188.71 38.6709 188.483 38.8581 188.301 39.0921C188.164 39.3729 188.028 39.6538 187.982 39.9346H194.079ZM183.615 43.3045V37.3604H184.479V37.7348C184.752 37.3604 185.162 37.1263 185.708 37.0795C185.844 37.0795 185.981 37.0795 186.072 37.1263C186.208 37.1263 186.299 37.1731 186.39 37.1731C186.527 37.2199 186.618 37.2668 186.754 37.3136C186.845 37.3604 186.982 37.4072 187.118 37.454L186.891 38.2964C186.754 38.2496 186.618 38.2028 186.527 38.156C186.436 38.1092 186.345 38.1092 186.254 38.0624C186.163 38.0624 186.072 38.0156 185.981 38.0156C185.89 38.0156 185.799 38.0156 185.708 38.0156C184.889 38.0156 184.479 38.4369 184.479 39.3729V43.3045H183.615ZM178.884 43.6321C178.292 43.6321 177.792 43.5385 177.291 43.3981C176.791 43.2109 176.381 42.9769 176.017 42.6961C175.699 42.4152 175.426 42.0876 175.244 41.6664C175.017 41.2451 174.926 40.8239 174.926 40.309C174.926 39.841 175.062 39.4198 175.244 38.9985C175.426 38.5773 175.699 38.2496 176.063 37.9688C176.381 37.688 176.791 37.454 177.291 37.2668C177.792 37.1263 178.292 37.0327 178.884 37.0327C179.475 37.0327 180.021 37.1263 180.521 37.2668C181.022 37.454 181.431 37.688 181.795 37.9688C182.114 38.2496 182.387 38.6241 182.569 38.9985C182.751 39.4198 182.887 39.841 182.887 40.309V40.6835H175.881C175.881 41.0111 176.017 41.2919 176.154 41.5259C176.336 41.76 176.563 41.994 176.836 42.1812C177.109 42.3684 177.382 42.5088 177.746 42.6024C178.11 42.6961 178.474 42.7429 178.884 42.7429C179.52 42.7429 180.066 42.6493 180.567 42.462C181.067 42.3216 181.477 41.994 181.841 41.5728L182.614 41.994C182.114 42.5556 181.613 42.9769 180.976 43.2577C180.385 43.4917 179.657 43.6321 178.884 43.6321ZM181.932 39.9346C181.886 39.6538 181.795 39.3729 181.613 39.0921C181.431 38.8581 181.249 38.6709 180.976 38.4837C180.703 38.2964 180.385 38.156 180.066 38.0624C179.702 37.9688 179.293 37.922 178.884 37.922C178.474 37.922 178.11 37.9688 177.746 38.0624C177.428 38.156 177.109 38.2964 176.836 38.4837C176.563 38.6709 176.336 38.8581 176.199 39.0921C176.017 39.3729 175.926 39.6538 175.881 39.9346H181.932ZM171.422 43.3045V39.3729H170.285H169.967H167.692V43.3045H166.828V39.3729H165.372V38.5305H166.828V37.922C166.828 37.3136 167.01 36.7987 167.373 36.4243C167.737 36.0498 168.238 35.8626 168.875 35.8626C169.057 35.8626 169.284 35.9094 169.512 35.9562C169.739 36.003 170.012 36.0498 170.285 36.1903L170.103 37.0327C169.557 36.8455 169.148 36.7519 168.875 36.7519C168.511 36.7519 168.192 36.8455 168.01 37.0795C167.783 37.2668 167.692 37.5476 167.692 37.922V38.5305H169.967H170.285H171.422V37.922C171.422 37.3136 171.604 36.7987 171.968 36.4243C172.332 36.0498 172.833 35.8626 173.515 35.8626C173.697 35.8626 173.879 35.9094 174.107 35.9562C174.334 36.003 174.607 36.0498 174.926 36.1903L174.698 37.0327C174.152 36.8455 173.743 36.7519 173.515 36.7519C173.106 36.7519 172.833 36.8455 172.605 37.0795C172.378 37.2668 172.287 37.5476 172.287 37.922V38.5305H174.926V39.3729H172.287V43.3045H171.422ZM165.008 43.3045H164.143V37.3604H165.008V43.3045ZM164.052 36.1903C164.052 36.0498 164.098 35.9094 164.189 35.769C164.28 35.6754 164.416 35.6286 164.598 35.6286C164.735 35.6286 164.871 35.6754 165.008 35.769C165.099 35.9094 165.144 36.0498 165.144 36.1903C165.144 36.3775 165.099 36.4711 165.008 36.6115C164.871 36.7051 164.735 36.7519 164.598 36.7519C164.416 36.7519 164.28 36.7051 164.189 36.6115C164.098 36.4711 164.052 36.3775 164.052 36.1903ZM159.457 43.6321C158.912 43.6321 158.411 43.5385 157.956 43.3981C157.501 43.2109 157.092 42.9769 156.773 42.6961C156.455 42.4152 156.182 42.0876 156 41.6664C155.818 41.2451 155.727 40.8239 155.727 40.309C155.727 39.841 155.818 39.3729 156 38.9517C156.182 38.5773 156.455 38.2028 156.773 37.922C157.092 37.6412 157.501 37.4072 157.956 37.2668C158.411 37.1263 158.912 37.0327 159.457 37.0327C159.73 37.0327 160.003 37.0327 160.322 37.0795C160.595 37.1263 160.868 37.2199 161.095 37.3136C161.368 37.3604 161.596 37.5008 161.823 37.5944C162.005 37.7348 162.187 37.8752 162.324 38.0624V36.0498H163.188V43.3045H162.324V42.6024C161.96 42.9301 161.55 43.1641 161.095 43.3513C160.595 43.5385 160.049 43.6321 159.457 43.6321ZM159.685 42.7429C160.276 42.7429 160.822 42.6493 161.232 42.462C161.687 42.2748 162.051 42.0408 162.324 41.6664V38.9985C162.051 38.6241 161.687 38.3901 161.232 38.2028C160.777 38.0156 160.276 37.922 159.685 37.922C159.23 37.922 158.775 37.9688 158.411 38.0624C158.047 38.2028 157.683 38.3433 157.41 38.5773C157.137 38.8113 156.955 39.0453 156.773 39.3261C156.637 39.6538 156.591 39.9814 156.591 40.309C156.591 40.6835 156.637 41.0111 156.773 41.2919C156.955 41.6196 157.137 41.8536 157.41 42.0876C157.683 42.2748 158.047 42.462 158.411 42.5556C158.775 42.6961 159.23 42.7429 159.685 42.7429ZM143.398 37.5008L146.81 41.8536L149.995 37.3604H151.041L145.764 44.8959L145.036 44.381L146.31 42.5556C145.991 42.1812 145.627 41.76 145.263 41.2919C144.945 40.8707 144.581 40.4026 144.171 39.9346C143.807 39.4666 143.443 39.0453 143.079 38.5773C142.761 38.156 142.579 37.922 142.261 37.5008H143.398ZM141.669 36.0498V41.76C141.669 41.8536 141.669 41.9472 141.715 42.0408C141.715 42.1344 141.76 42.228 141.806 42.3216C141.851 42.4152 141.942 42.462 142.033 42.5088C142.124 42.6024 142.261 42.6024 142.397 42.6493L142.352 43.4449C141.806 43.3981 141.442 43.2109 141.169 42.9301C140.941 42.6024 140.805 42.228 140.805 41.76V36.0498H141.669Z" fill="#78AFFF"/>
<path fill-rule="evenodd" clip-rule="evenodd" d="M81.434 20.4172C81.434 22.149 81.98 23.5999 82.9808 24.6296C83.9817 25.6125 85.4375 26.2209 87.1208 26.2209C87.6667 26.2209 88.2127 26.2209 88.7586 26.2209C88.7586 27.1102 88.7586 28.0463 88.7586 28.9824C87.9397 28.9824 87.1663 28.9824 86.5294 28.9356C84.7551 28.842 83.2538 28.5612 81.7525 27.4847C80.4332 26.5486 79.5688 25.5657 78.8863 23.9743C78.5224 23.1319 78.2949 22.2426 78.2949 21.5405C78.2949 16.9069 78.2949 12.3201 78.2949 7.68643C78.2949 6.89075 78.4769 6.09508 78.7499 5.34621C79.4778 3.61445 80.7061 2.16352 82.2984 1.27423C83.6178 0.525365 84.6641 0.291343 86.1654 0.197735C86.9843 0.104126 87.8942 0.104126 88.7586 0.104126C88.7586 1.04021 88.7586 1.92949 88.7586 2.86558C87.7122 2.86558 87.0753 2.91239 86.1199 3.0996C85.1646 3.24002 84.3457 3.47404 83.7087 3.89528C83.2993 4.1293 82.9353 4.50373 82.6169 4.92497C82.2984 5.29941 82.0255 5.76745 81.798 6.23549C81.6615 6.60993 81.5705 6.93756 81.525 7.31199C81.434 7.68643 81.434 8.15447 81.434 8.66932C81.434 12.6009 81.434 16.4856 81.434 20.4172Z" fill="url(#paint1_linear)"/>
<path fill-rule="evenodd" clip-rule="evenodd" d="M84.9834 16.7665C85.3928 16.8133 85.7568 16.8133 86.2117 16.7665C87.0761 16.6261 88.8504 15.5964 89.6693 15.1751C90.4427 14.8007 91.4891 14.239 92.2625 13.8646C94.6282 12.6945 94.3097 11.4776 91.4891 12.8349C90.8976 13.1157 90.2607 13.4434 89.6238 13.771C89.3508 13.9114 88.8959 13.7242 88.6229 13.6306C88.077 13.4902 85.8933 12.8817 85.6203 12.8817L85.3473 13.3029L86.6667 14.5667C86.8032 14.7071 87.0306 14.8943 87.0761 14.9879C86.9396 15.1751 85.8478 15.69 85.6203 15.7836C85.2109 16.0176 84.5284 16.2984 84.1645 16.5793C84.2555 16.6261 84.4374 16.6729 84.5739 16.6729C69.7428 24.2552 50.4532 32.0247 32.8924 33.8032C23.4296 34.7393 17.3788 34.1309 10.2817 32.3991C2.4112 30.5269 0.136483 26.2677 0 26.5954C0.227472 26.2209 1.68329 31.8843 10.0542 35.3946C20.5634 39.7474 34.7122 37.7348 46.4497 34.4117C67.6046 28.3271 80.4794 19.8556 84.9834 16.7665Z" fill="url(#paint2_linear)"/>
<defs>
<linearGradient id="paint0_linear" x1="147.499" y1="34.5" x2="147.499" y2="-8.30429e-07" gradientUnits="userSpaceOnUse">
<stop stop-color="#9EBCCF"/>
<stop offset="1" stop-color="#F4F4F4"/>
</linearGradient>
<linearGradient id="paint1_linear" x1="71.4991" y1="-3" x2="65.487" y2="2.0157" gradientUnits="userSpaceOnUse">
<stop stop-color="#F8BBA8"/>
<stop offset="1" stop-color="#CF9677"/>
</linearGradient>
<linearGradient id="paint2_linear" x1="44" y1="46" x2="68" y2="7.5" gradientUnits="userSpaceOnUse">
<stop stop-color="#F8BBA8"/>
<stop offset="1" stop-color="#CF9677"/>
</linearGradient>
</defs>
</svg>
