<svg width="64" height="56" viewBox="0 0 64 56" fill="none" xmlns="http://www.w3.org/2000/svg">
<path d="M17.7778 49C14.9333 49 12.0889 46.55 10.6667 45.5C3.55556 40.6 1.42222 38.85 0 37.8V52.5C0 54.4327 1.59222 56 3.55556 56H32C33.9633 56 35.5556 54.4327 35.5556 52.5V37.8C34.1333 38.85 32 40.6 24.8889 45.5C23.4667 46.55 20.6222 49 17.7778 49ZM32 28H3.55556C1.59222 28 0 29.5673 0 31.5V33.25C2.84444 35.35 2.48889 35.35 12.8 42.7C13.8667 43.4 16 45.5 17.7778 45.5C19.5556 45.5 21.6889 43.4 22.7556 43.05C33.0667 35.7 32.7111 35.7 35.5556 33.6V31.5C35.5556 29.5673 33.9633 28 32 28ZM60.4444 17.5H24.8889C22.9256 17.5 21.3333 19.0673 21.3333 21V24.5H32C35.69 24.5 38.7322 27.2803 39.0789 30.8241L39.1111 30.8V45.5H60.4444C62.4078 45.5 64 43.9327 64 42V21C64 19.0673 62.4078 17.5 60.4444 17.5ZM56.8889 31.5H49.7778V24.5H56.8889V31.5ZM17.7778 21C17.7778 17.1402 20.9678 14 24.8889 14H49.7778V3.5C49.7778 1.56734 48.1856 0 46.2222 0H10.6667C8.70333 0 7.11111 1.56734 7.11111 3.5V24.5H17.7778V21Z" fill="white" fill-opacity="0.6"/>
</svg>
