<svg width="64" height="57" viewBox="0 0 64 57" fill="none" xmlns="http://www.w3.org/2000/svg">
<path d="M53.3333 21.375H40.6343L28.9565 0.897305C28.8008 0.62467 28.5759 0.398098 28.3047 0.240527C28.0335 0.0829562 27.7256 -1.96969e-05 27.4121 3.5072e-09L20.1342 3.5072e-09C18.9531 3.5072e-09 18.1009 1.13221 18.4253 2.26998L23.8731 21.375H12.4442L7.64418 14.9625C7.30863 14.5138 6.78085 14.25 6.22196 14.25H1.7786C0.62193 14.25 -0.226962 15.3388 0.0541501 16.4632L3.55528 28.5L0.0541501 40.5368C-0.226962 41.6612 0.62193 42.75 1.7786 42.75H6.22196C6.78196 42.75 7.30863 42.4862 7.64418 42.0375L12.4442 35.625H23.8731L18.4253 54.7289C18.1009 55.8667 18.9531 57 20.1342 57H27.4121C28.0498 57 28.6387 56.6571 28.9554 56.1027L40.6343 35.625H53.3333C57.2611 35.625 64 32.4354 64 28.5C64 24.5646 57.2611 21.375 53.3333 21.375Z" fill="white" fill-opacity="0.6"/>
</svg>
