<svg width="52" height="52" viewBox="0 0 52 52" fill="none" xmlns="http://www.w3.org/2000/svg">
<path d="M26 0C11.6371 0 0 11.6371 0 26C0 40.3629 11.6371 52 26 52C40.3629 52 52 40.3629 52 26C52 11.6371 40.3629 0 26 0ZM31.9863 36.704L22.7395 29.9839C22.4145 29.7427 22.2258 29.3653 22.2258 28.9669V11.3226C22.2258 10.6306 22.7919 10.0645 23.4839 10.0645H28.5161C29.2081 10.0645 29.7742 10.6306 29.7742 11.3226V25.7589L36.4314 30.6024C36.9976 31.0113 37.1129 31.7976 36.704 32.3637L33.7476 36.4314C33.3387 36.9871 32.5524 37.1129 31.9863 36.704Z" fill="white" fill-opacity="0.6"/>
</svg>
