<svg width="64" height="44" viewBox="0 0 64 44" fill="none" xmlns="http://www.w3.org/2000/svg">
<path d="M63.4909 12.0686C45.7739 -4.0258 18.2189 -4.01991 0.508915 12.0686C-0.157085 12.6736 -0.170085 13.6979 0.473915 14.3255L3.89792 17.6619C4.51192 18.261 5.49992 18.2738 6.13792 17.6992C20.7299 4.56991 43.2679 4.56696 57.8629 17.6992C58.5009 18.2738 59.4889 18.26 60.103 17.6619L63.527 14.3255C64.17 13.6979 64.1569 12.6736 63.4909 12.0686ZM31.9999 31.4286C28.4649 31.4286 25.5999 34.2424 25.5999 37.7143C25.5999 41.1862 28.4649 44 31.9999 44C35.5349 44 38.3999 41.1862 38.3999 37.7143C38.3999 34.2424 35.5349 31.4286 31.9999 31.4286ZM52.2669 23.2188C40.7409 13.2079 23.2459 13.2187 11.7329 23.2188C11.0429 23.8179 11.0209 24.858 11.6759 25.4925L15.1199 28.8308C15.7199 29.4122 16.6859 29.4515 17.3249 28.9094C25.7199 21.782 38.2989 21.7977 46.6739 28.9094C47.3129 29.4515 48.2789 29.4132 48.8789 28.8308L52.3229 25.4925C52.9789 24.858 52.9559 23.817 52.2669 23.2188Z" fill="white" fill-opacity="0.6"/>
</svg>
